<svg xmlns="http://www.w3.org/2000/svg" viewBox="0 0 1440 900" role="img" aria-labelledby="title">
  <title id="title">合成空间孪生界面示意图</title>
  <defs>
    <radialGradient id="space" cx="50%" cy="46%" r="70%"><stop stop-color="#17305a"/><stop offset="1" stop-color="#050b16"/></radialGradient>
    <linearGradient id="panel" x1="0" y1="0" x2="1" y2="1"><stop stop-color="#18243a" stop-opacity=".96"/><stop offset="1" stop-color="#0e1627" stop-opacity=".94"/></linearGradient>
    <filter id="glow"><feGaussianBlur stdDeviation="7" result="b"/><feMerge><feMergeNode in="b"/><feMergeNode in="SourceGraphic"/></feMerge></filter>
  </defs>
  <rect width="1440" height="900" fill="url(#space)"/>
  <g stroke="#183258" stroke-width="1" opacity=".7">
    <path d="M0 710 720 380 1440 710"/><path d="M0 770 720 410 1440 770"/><path d="M0 830 720 440 1440 830"/>
    <path d="M180 900 720 380M420 900 720 380M660 900 720 380M900 900 720 380M1140 900 720 380"/>
  </g>
  <g transform="translate(350 168)" fill="none" stroke-linejoin="round">
    <path d="M80 230 370 80 710 250 410 430Z" fill="#0d203a" stroke="#4b8df8" stroke-width="4"/>
    <path d="M80 230v245l330 180V430M710 250v240L410 655" stroke="#4b8df8" stroke-width="3" opacity=".8"/>
    <path d="m160 270 218-111 250 125-224 124Z" fill="#153455" stroke="#6eafff" stroke-width="3"/>
    <path d="M160 270v140l244 132V408M628 284v138L404 542" stroke="#65a7f5" stroke-width="2"/>
    <path d="M242 314v116l88 48V364Zm240 10v116l78-41V285Z" fill="#1e4e70" stroke="#67d6c4" stroke-width="3"/>
    <g fill="#71d9c8" stroke="none" filter="url(#glow)">
      <circle cx="206" cy="287" r="5"/><circle cx="270" cy="252" r="5"/><circle cx="346" cy="211" r="5"/><circle cx="438" cy="220" r="5"/><circle cx="526" cy="265" r="5"/><circle cx="586" cy="294" r="5"/>
      <circle cx="196" cy="389" r="5"/><circle cx="280" cy="437" r="5"/><circle cx="370" cy="484" r="5"/><circle cx="485" cy="496" r="5"/><circle cx="570" cy="452" r="5"/>
    </g>
  </g>
  <rect x="34" y="34" width="290" height="832" rx="24" fill="url(#panel)" stroke="#263751"/>
  <text x="70" y="88" font-family="Arial,'Microsoft YaHei',sans-serif" font-size="28" font-weight="700" fill="#fff">空间孪生</text>
  <text x="70" y="119" font-family="Arial,'Microsoft YaHei',sans-serif" font-size="14" fill="#8fa4c0">SYNTHETIC DEMO SCENE</text>
  <g font-family="Arial,'Microsoft YaHei',sans-serif">
    <rect x="60" y="166" width="238" height="106" rx="18" fill="#15243a"/><text x="82" y="201" font-size="14" fill="#91a7c3">演示模型</text><text x="82" y="239" font-size="22" font-weight="700" fill="#fff">通用工业空间</text>
    <rect x="60" y="292" width="238" height="158" rx="18" fill="#15243a"/><text x="82" y="328" font-size="14" fill="#91a7c3">图层</text><circle cx="88" cy="365" r="7" fill="#4b8df8"/><text x="108" y="371" font-size="17" fill="#e9f1ff">主点云</text><circle cx="88" cy="405" r="7" fill="#67d6c4"/><text x="108" y="411" font-size="17" fill="#e9f1ff">几何框架</text>
    <rect x="60" y="470" width="238" height="180" rx="18" fill="#15243a"/><text x="82" y="506" font-size="14" fill="#91a7c3">视图</text>
    <rect x="82" y="530" width="58" height="42" rx="11" fill="#2e6fd7"/><text x="100" y="557" font-size="15" fill="#fff">3D</text>
    <rect x="150" y="530" width="58" height="42" rx="11" fill="#202f46"/><text x="168" y="557" font-size="15" fill="#c3d0e1">TOP</text>
    <rect x="218" y="530" width="58" height="42" rx="11" fill="#202f46"/><text x="240" y="557" font-size="15" fill="#c3d0e1">FR</text>
    <text x="82" y="618" font-size="14" fill="#67d6c4">● 模型已就绪</text>
  </g>
  <rect x="1080" y="50" width="322" height="112" rx="20" fill="url(#panel)" stroke="#263751"/>
  <text x="1110" y="91" font-family="Arial,'Microsoft YaHei',sans-serif" font-size="14" fill="#91a7c3">隐私安全</text>
  <text x="1110" y="126" font-family="Arial,'Microsoft YaHei',sans-serif" font-size="19" font-weight="700" fill="#fff">仅包含合成空间数据</text>
</svg>
