ply
format ascii 1.0
comment Synthetic geometry framework.
element vertex 676
property float x
property float y
property float z
property uchar red
property uchar green
property uchar blue
end_header
-4.0000 0.0000 -2.5000 45 213 196
-3.8857 0.0000 -2.5000 45 213 196
-3.7714 0.0000 -2.5000 45 213 196
-3.6571 0.0000 -2.5000 45 213 196
-3.5429 0.0000 -2.5000 45 213 196
-3.4286 0.0000 -2.5000 45 213 196
-3.3143 0.0000 -2.5000 45 213 196
-3.2000 0.0000 -2.5000 45 213 196
-3.0857 0.0000 -2.5000 45 213 196
-2.9714 0.0000 -2.5000 45 213 196
-2.8571 0.0000 -2.5000 45 213 196
-2.7429 0.0000 -2.5000 45 213 196
-2.6286 0.0000 -2.5000 45 213 196
-2.5143 0.0000 -2.5000 45 213 196
-2.4000 0.0000 -2.5000 45 213 196
-2.2857 0.0000 -2.5000 45 213 196
-2.1714 0.0000 -2.5000 45 213 196
-2.0571 0.0000 -2.5000 45 213 196
-1.9429 0.0000 -2.5000 45 213 196
-1.8286 0.0000 -2.5000 45 213 196
-1.7143 0.0000 -2.5000 45 213 196
-1.6000 0.0000 -2.5000 45 213 196
-1.4857 0.0000 -2.5000 45 213 196
-1.3714 0.0000 -2.5000 45 213 196
-1.2571 0.0000 -2.5000 45 213 196
-1.1429 0.0000 -2.5000 45 213 196
-1.0286 0.0000 -2.5000 45 213 196
-0.9143 0.0000 -2.5000 45 213 196
-0.8000 0.0000 -2.5000 45 213 196
-0.6857 0.0000 -2.5000 45 213 196
-0.5714 0.0000 -2.5000 45 213 196
-0.4571 0.0000 -2.5000 45 213 196
-0.3429 0.0000 -2.5000 45 213 196
-0.2286 0.0000 -2.5000 45 213 196
-0.1143 0.0000 -2.5000 45 213 196
0.0000 0.0000 -2.5000 45 213 196
0.1143 0.0000 -2.5000 45 213 196
0.2286 0.0000 -2.5000 45 213 196
0.3429 0.0000 -2.5000 45 213 196
0.4571 0.0000 -2.5000 45 213 196
0.5714 0.0000 -2.5000 45 213 196
0.6857 0.0000 -2.5000 45 213 196
0.8000 0.0000 -2.5000 45 213 196
0.9143 0.0000 -2.5000 45 213 196
1.0286 0.0000 -2.5000 45 213 196
1.1429 0.0000 -2.5000 45 213 196
1.2571 0.0000 -2.5000 45 213 196
1.3714 0.0000 -2.5000 45 213 196
1.4857 0.0000 -2.5000 45 213 196
1.6000 0.0000 -2.5000 45 213 196
1.7143 0.0000 -2.5000 45 213 196
1.8286 0.0000 -2.5000 45 213 196
1.9429 0.0000 -2.5000 45 213 196
2.0571 0.0000 -2.5000 45 213 196
2.1714 0.0000 -2.5000 45 213 196
2.2857 0.0000 -2.5000 45 213 196
2.4000 0.0000 -2.5000 45 213 196
2.5143 0.0000 -2.5000 45 213 196
2.6286 0.0000 -2.5000 45 213 196
2.7429 0.0000 -2.5000 45 213 196
2.8571 0.0000 -2.5000 45 213 196
2.9714 0.0000 -2.5000 45 213 196
3.0857 0.0000 -2.5000 45 213 196
3.2000 0.0000 -2.5000 45 213 196
3.3143 0.0000 -2.5000 45 213 196
3.4286 0.0000 -2.5000 45 213 196
3.5429 0.0000 -2.5000 45 213 196
3.6571 0.0000 -2.5000 45 213 196
3.7714 0.0000 -2.5000 45 213 196
3.8857 0.0000 -2.5000 45 213 196
4.0000 0.0000 -2.5000 45 213 196
-4.0000 0.0000 -2.5000 45 213 196
-4.0000 0.1000 -2.5000 45 213 196
-4.0000 0.2000 -2.5000 45 213 196
-4.0000 0.3000 -2.5000 45 213 196
-4.0000 0.4000 -2.5000 45 213 196
-4.0000 0.5000 -2.5000 45 213 196
-4.0000 0.6000 -2.5000 45 213 196
-4.0000 0.7000 -2.5000 45 213 196
-4.0000 0.8000 -2.5000 45 213 196
-4.0000 0.9000 -2.5000 45 213 196
-4.0000 1.0000 -2.5000 45 213 196
-4.0000 1.1000 -2.5000 45 213 196
-4.0000 1.2000 -2.5000 45 213 196
-4.0000 1.3000 -2.5000 45 213 196
-4.0000 1.4000 -2.5000 45 213 196
-4.0000 1.5000 -2.5000 45 213 196
-4.0000 1.6000 -2.5000 45 213 196
-4.0000 1.7000 -2.5000 45 213 196
-4.0000 1.8000 -2.5000 45 213 196
-4.0000 1.9000 -2.5000 45 213 196
-4.0000 2.0000 -2.5000 45 213 196
-4.0000 2.1000 -2.5000 45 213 196
-4.0000 2.2000 -2.5000 45 213 196
-4.0000 2.3000 -2.5000 45 213 196
-4.0000 2.4000 -2.5000 45 213 196
-4.0000 2.5000 -2.5000 45 213 196
-4.0000 2.6000 -2.5000 45 213 196
-4.0000 2.6000 -2.5000 45 213 196
-3.8857 2.6000 -2.5000 45 213 196
-3.7714 2.6000 -2.5000 45 213 196
-3.6571 2.6000 -2.5000 45 213 196
-3.5429 2.6000 -2.5000 45 213 196
-3.4286 2.6000 -2.5000 45 213 196
-3.3143 2.6000 -2.5000 45 213 196
-3.2000 2.6000 -2.5000 45 213 196
-3.0857 2.6000 -2.5000 45 213 196
-2.9714 2.6000 -2.5000 45 213 196
-2.8571 2.6000 -2.5000 45 213 196
-2.7429 2.6000 -2.5000 45 213 196
-2.6286 2.6000 -2.5000 45 213 196
-2.5143 2.6000 -2.5000 45 213 196
-2.4000 2.6000 -2.5000 45 213 196
-2.2857 2.6000 -2.5000 45 213 196
-2.1714 2.6000 -2.5000 45 213 196
-2.0571 2.6000 -2.5000 45 213 196
-1.9429 2.6000 -2.5000 45 213 196
-1.8286 2.6000 -2.5000 45 213 196
-1.7143 2.6000 -2.5000 45 213 196
-1.6000 2.6000 -2.5000 45 213 196
-1.4857 2.6000 -2.5000 45 213 196
-1.3714 2.6000 -2.5000 45 213 196
-1.2571 2.6000 -2.5000 45 213 196
-1.1429 2.6000 -2.5000 45 213 196
-1.0286 2.6000 -2.5000 45 213 196
-0.9143 2.6000 -2.5000 45 213 196
-0.8000 2.6000 -2.5000 45 213 196
-0.6857 2.6000 -2.5000 45 213 196
-0.5714 2.6000 -2.5000 45 213 196
-0.4571 2.6000 -2.5000 45 213 196
-0.3429 2.6000 -2.5000 45 213 196
-0.2286 2.6000 -2.5000 45 213 196
-0.1143 2.6000 -2.5000 45 213 196
0.0000 2.6000 -2.5000 45 213 196
0.1143 2.6000 -2.5000 45 213 196
0.2286 2.6000 -2.5000 45 213 196
0.3429 2.6000 -2.5000 45 213 196
0.4571 2.6000 -2.5000 45 213 196
0.5714 2.6000 -2.5000 45 213 196
0.6857 2.6000 -2.5000 45 213 196
0.8000 2.6000 -2.5000 45 213 196
0.9143 2.6000 -2.5000 45 213 196
1.0286 2.6000 -2.5000 45 213 196
1.1429 2.6000 -2.5000 45 213 196
1.2571 2.6000 -2.5000 45 213 196
1.3714 2.6000 -2.5000 45 213 196
1.4857 2.6000 -2.5000 45 213 196
1.6000 2.6000 -2.5000 45 213 196
1.7143 2.6000 -2.5000 45 213 196
1.8286 2.6000 -2.5000 45 213 196
1.9429 2.6000 -2.5000 45 213 196
2.0571 2.6000 -2.5000 45 213 196
2.1714 2.6000 -2.5000 45 213 196
2.2857 2.6000 -2.5000 45 213 196
2.4000 2.6000 -2.5000 45 213 196
2.5143 2.6000 -2.5000 45 213 196
2.6286 2.6000 -2.5000 45 213 196
2.7429 2.6000 -2.5000 45 213 196
2.8571 2.6000 -2.5000 45 213 196
2.9714 2.6000 -2.5000 45 213 196
3.0857 2.6000 -2.5000 45 213 196
3.2000 2.6000 -2.5000 45 213 196
3.3143 2.6000 -2.5000 45 213 196
3.4286 2.6000 -2.5000 45 213 196
3.5429 2.6000 -2.5000 45 213 196
3.6571 2.6000 -2.5000 45 213 196
3.7714 2.6000 -2.5000 45 213 196
3.8857 2.6000 -2.5000 45 213 196
4.0000 2.6000 -2.5000 45 213 196
4.0000 0.0000 -2.5000 45 213 196
4.0000 0.0000 -2.4286 45 213 196
4.0000 0.0000 -2.3571 45 213 196
4.0000 0.0000 -2.2857 45 213 196
4.0000 0.0000 -2.2143 45 213 196
4.0000 0.0000 -2.1429 45 213 196
4.0000 0.0000 -2.0714 45 213 196
4.0000 0.0000 -2.0000 45 213 196
4.0000 0.0000 -1.9286 45 213 196
4.0000 0.0000 -1.8571 45 213 196
4.0000 0.0000 -1.7857 45 213 196
4.0000 0.0000 -1.7143 45 213 196
4.0000 0.0000 -1.6429 45 213 196
4.0000 0.0000 -1.5714 45 213 196
4.0000 0.0000 -1.5000 45 213 196
4.0000 0.0000 -1.4286 45 213 196
4.0000 0.0000 -1.3571 45 213 196
4.0000 0.0000 -1.2857 45 213 196
4.0000 0.0000 -1.2143 45 213 196
4.0000 0.0000 -1.1429 45 213 196
4.0000 0.0000 -1.0714 45 213 196
4.0000 0.0000 -1.0000 45 213 196
4.0000 0.0000 -0.9286 45 213 196
4.0000 0.0000 -0.8571 45 213 196
4.0000 0.0000 -0.7857 45 213 196
4.0000 0.0000 -0.7143 45 213 196
4.0000 0.0000 -0.6429 45 213 196
4.0000 0.0000 -0.5714 45 213 196
4.0000 0.0000 -0.5000 45 213 196
4.0000 0.0000 -0.4286 45 213 196
4.0000 0.0000 -0.3571 45 213 196
4.0000 0.0000 -0.2857 45 213 196
4.0000 0.0000 -0.2143 45 213 196
4.0000 0.0000 -0.1429 45 213 196
4.0000 0.0000 -0.0714 45 213 196
4.0000 0.0000 0.0000 45 213 196
4.0000 0.0000 0.0714 45 213 196
4.0000 0.0000 0.1429 45 213 196
4.0000 0.0000 0.2143 45 213 196
4.0000 0.0000 0.2857 45 213 196
4.0000 0.0000 0.3571 45 213 196
4.0000 0.0000 0.4286 45 213 196
4.0000 0.0000 0.5000 45 213 196
4.0000 0.0000 0.5714 45 213 196
4.0000 0.0000 0.6429 45 213 196
4.0000 0.0000 0.7143 45 213 196
4.0000 0.0000 0.7857 45 213 196
4.0000 0.0000 0.8571 45 213 196
4.0000 0.0000 0.9286 45 213 196
4.0000 0.0000 1.0000 45 213 196
4.0000 0.0000 1.0714 45 213 196
4.0000 0.0000 1.1429 45 213 196
4.0000 0.0000 1.2143 45 213 196
4.0000 0.0000 1.2857 45 213 196
4.0000 0.0000 1.3571 45 213 196
4.0000 0.0000 1.4286 45 213 196
4.0000 0.0000 1.5000 45 213 196
4.0000 0.0000 1.5714 45 213 196
4.0000 0.0000 1.6429 45 213 196
4.0000 0.0000 1.7143 45 213 196
4.0000 0.0000 1.7857 45 213 196
4.0000 0.0000 1.8571 45 213 196
4.0000 0.0000 1.9286 45 213 196
4.0000 0.0000 2.0000 45 213 196
4.0000 0.0000 2.0714 45 213 196
4.0000 0.0000 2.1429 45 213 196
4.0000 0.0000 2.2143 45 213 196
4.0000 0.0000 2.2857 45 213 196
4.0000 0.0000 2.3571 45 213 196
4.0000 0.0000 2.4286 45 213 196
4.0000 0.0000 2.5000 45 213 196
4.0000 0.0000 -2.5000 45 213 196
4.0000 0.1000 -2.5000 45 213 196
4.0000 0.2000 -2.5000 45 213 196
4.0000 0.3000 -2.5000 45 213 196
4.0000 0.4000 -2.5000 45 213 196
4.0000 0.5000 -2.5000 45 213 196
4.0000 0.6000 -2.5000 45 213 196
4.0000 0.7000 -2.5000 45 213 196
4.0000 0.8000 -2.5000 45 213 196
4.0000 0.9000 -2.5000 45 213 196
4.0000 1.0000 -2.5000 45 213 196
4.0000 1.1000 -2.5000 45 213 196
4.0000 1.2000 -2.5000 45 213 196
4.0000 1.3000 -2.5000 45 213 196
4.0000 1.4000 -2.5000 45 213 196
4.0000 1.5000 -2.5000 45 213 196
4.0000 1.6000 -2.5000 45 213 196
4.0000 1.7000 -2.5000 45 213 196
4.0000 1.8000 -2.5000 45 213 196
4.0000 1.9000 -2.5000 45 213 196
4.0000 2.0000 -2.5000 45 213 196
4.0000 2.1000 -2.5000 45 213 196
4.0000 2.2000 -2.5000 45 213 196
4.0000 2.3000 -2.5000 45 213 196
4.0000 2.4000 -2.5000 45 213 196
4.0000 2.5000 -2.5000 45 213 196
4.0000 2.6000 -2.5000 45 213 196
4.0000 2.6000 -2.5000 45 213 196
4.0000 2.6000 -2.4286 45 213 196
4.0000 2.6000 -2.3571 45 213 196
4.0000 2.6000 -2.2857 45 213 196
4.0000 2.6000 -2.2143 45 213 196
4.0000 2.6000 -2.1429 45 213 196
4.0000 2.6000 -2.0714 45 213 196
4.0000 2.6000 -2.0000 45 213 196
4.0000 2.6000 -1.9286 45 213 196
4.0000 2.6000 -1.8571 45 213 196
4.0000 2.6000 -1.7857 45 213 196
4.0000 2.6000 -1.7143 45 213 196
4.0000 2.6000 -1.6429 45 213 196
4.0000 2.6000 -1.5714 45 213 196
4.0000 2.6000 -1.5000 45 213 196
4.0000 2.6000 -1.4286 45 213 196
4.0000 2.6000 -1.3571 45 213 196
4.0000 2.6000 -1.2857 45 213 196
4.0000 2.6000 -1.2143 45 213 196
4.0000 2.6000 -1.1429 45 213 196
4.0000 2.6000 -1.0714 45 213 196
4.0000 2.6000 -1.0000 45 213 196
4.0000 2.6000 -0.9286 45 213 196
4.0000 2.6000 -0.8571 45 213 196
4.0000 2.6000 -0.7857 45 213 196
4.0000 2.6000 -0.7143 45 213 196
4.0000 2.6000 -0.6429 45 213 196
4.0000 2.6000 -0.5714 45 213 196
4.0000 2.6000 -0.5000 45 213 196
4.0000 2.6000 -0.4286 45 213 196
4.0000 2.6000 -0.3571 45 213 196
4.0000 2.6000 -0.2857 45 213 196
4.0000 2.6000 -0.2143 45 213 196
4.0000 2.6000 -0.1429 45 213 196
4.0000 2.6000 -0.0714 45 213 196
4.0000 2.6000 0.0000 45 213 196
4.0000 2.6000 0.0714 45 213 196
4.0000 2.6000 0.1429 45 213 196
4.0000 2.6000 0.2143 45 213 196
4.0000 2.6000 0.2857 45 213 196
4.0000 2.6000 0.3571 45 213 196
4.0000 2.6000 0.4286 45 213 196
4.0000 2.6000 0.5000 45 213 196
4.0000 2.6000 0.5714 45 213 196
4.0000 2.6000 0.6429 45 213 196
4.0000 2.6000 0.7143 45 213 196
4.0000 2.6000 0.7857 45 213 196
4.0000 2.6000 0.8571 45 213 196
4.0000 2.6000 0.9286 45 213 196
4.0000 2.6000 1.0000 45 213 196
4.0000 2.6000 1.0714 45 213 196
4.0000 2.6000 1.1429 45 213 196
4.0000 2.6000 1.2143 45 213 196
4.0000 2.6000 1.2857 45 213 196
4.0000 2.6000 1.3571 45 213 196
4.0000 2.6000 1.4286 45 213 196
4.0000 2.6000 1.5000 45 213 196
4.0000 2.6000 1.5714 45 213 196
4.0000 2.6000 1.6429 45 213 196
4.0000 2.6000 1.7143 45 213 196
4.0000 2.6000 1.7857 45 213 196
4.0000 2.6000 1.8571 45 213 196
4.0000 2.6000 1.9286 45 213 196
4.0000 2.6000 2.0000 45 213 196
4.0000 2.6000 2.0714 45 213 196
4.0000 2.6000 2.1429 45 213 196
4.0000 2.6000 2.2143 45 213 196
4.0000 2.6000 2.2857 45 213 196
4.0000 2.6000 2.3571 45 213 196
4.0000 2.6000 2.4286 45 213 196
4.0000 2.6000 2.5000 45 213 196
4.0000 0.0000 2.5000 45 213 196
3.8857 0.0000 2.5000 45 213 196
3.7714 0.0000 2.5000 45 213 196
3.6571 0.0000 2.5000 45 213 196
3.5429 0.0000 2.5000 45 213 196
3.4286 0.0000 2.5000 45 213 196
3.3143 0.0000 2.5000 45 213 196
3.2000 0.0000 2.5000 45 213 196
3.0857 0.0000 2.5000 45 213 196
2.9714 0.0000 2.5000 45 213 196
2.8571 0.0000 2.5000 45 213 196
2.7429 0.0000 2.5000 45 213 196
2.6286 0.0000 2.5000 45 213 196
2.5143 0.0000 2.5000 45 213 196
2.4000 0.0000 2.5000 45 213 196
2.2857 0.0000 2.5000 45 213 196
2.1714 0.0000 2.5000 45 213 196
2.0571 0.0000 2.5000 45 213 196
1.9429 0.0000 2.5000 45 213 196
1.8286 0.0000 2.5000 45 213 196
1.7143 0.0000 2.5000 45 213 196
1.6000 0.0000 2.5000 45 213 196
1.4857 0.0000 2.5000 45 213 196
1.3714 0.0000 2.5000 45 213 196
1.2571 0.0000 2.5000 45 213 196
1.1429 0.0000 2.5000 45 213 196
1.0286 0.0000 2.5000 45 213 196
0.9143 0.0000 2.5000 45 213 196
0.8000 0.0000 2.5000 45 213 196
0.6857 0.0000 2.5000 45 213 196
0.5714 0.0000 2.5000 45 213 196
0.4571 0.0000 2.5000 45 213 196
0.3429 0.0000 2.5000 45 213 196
0.2286 0.0000 2.5000 45 213 196
0.1143 0.0000 2.5000 45 213 196
0.0000 0.0000 2.5000 45 213 196
-0.1143 0.0000 2.5000 45 213 196
-0.2286 0.0000 2.5000 45 213 196
-0.3429 0.0000 2.5000 45 213 196
-0.4571 0.0000 2.5000 45 213 196
-0.5714 0.0000 2.5000 45 213 196
-0.6857 0.0000 2.5000 45 213 196
-0.8000 0.0000 2.5000 45 213 196
-0.9143 0.0000 2.5000 45 213 196
-1.0286 0.0000 2.5000 45 213 196
-1.1429 0.0000 2.5000 45 213 196
-1.2571 0.0000 2.5000 45 213 196
-1.3714 0.0000 2.5000 45 213 196
-1.4857 0.0000 2.5000 45 213 196
-1.6000 0.0000 2.5000 45 213 196
-1.7143 0.0000 2.5000 45 213 196
-1.8286 0.0000 2.5000 45 213 196
-1.9429 0.0000 2.5000 45 213 196
-2.0571 0.0000 2.5000 45 213 196
-2.1714 0.0000 2.5000 45 213 196
-2.2857 0.0000 2.5000 45 213 196
-2.4000 0.0000 2.5000 45 213 196
-2.5143 0.0000 2.5000 45 213 196
-2.6286 0.0000 2.5000 45 213 196
-2.7429 0.0000 2.5000 45 213 196
-2.8571 0.0000 2.5000 45 213 196
-2.9714 0.0000 2.5000 45 213 196
-3.0857 0.0000 2.5000 45 213 196
-3.2000 0.0000 2.5000 45 213 196
-3.3143 0.0000 2.5000 45 213 196
-3.4286 0.0000 2.5000 45 213 196
-3.5429 0.0000 2.5000 45 213 196
-3.6571 0.0000 2.5000 45 213 196
-3.7714 0.0000 2.5000 45 213 196
-3.8857 0.0000 2.5000 45 213 196
-4.0000 0.0000 2.5000 45 213 196
4.0000 0.0000 2.5000 45 213 196
4.0000 0.1000 2.5000 45 213 196
4.0000 0.2000 2.5000 45 213 196
4.0000 0.3000 2.5000 45 213 196
4.0000 0.4000 2.5000 45 213 196
4.0000 0.5000 2.5000 45 213 196
4.0000 0.6000 2.5000 45 213 196
4.0000 0.7000 2.5000 45 213 196
4.0000 0.8000 2.5000 45 213 196
4.0000 0.9000 2.5000 45 213 196
4.0000 1.0000 2.5000 45 213 196
4.0000 1.1000 2.5000 45 213 196
4.0000 1.2000 2.5000 45 213 196
4.0000 1.3000 2.5000 45 213 196
4.0000 1.4000 2.5000 45 213 196
4.0000 1.5000 2.5000 45 213 196
4.0000 1.6000 2.5000 45 213 196
4.0000 1.7000 2.5000 45 213 196
4.0000 1.8000 2.5000 45 213 196
4.0000 1.9000 2.5000 45 213 196
4.0000 2.0000 2.5000 45 213 196
4.0000 2.1000 2.5000 45 213 196
4.0000 2.2000 2.5000 45 213 196
4.0000 2.3000 2.5000 45 213 196
4.0000 2.4000 2.5000 45 213 196
4.0000 2.5000 2.5000 45 213 196
4.0000 2.6000 2.5000 45 213 196
4.0000 2.6000 2.5000 45 213 196
3.8857 2.6000 2.5000 45 213 196
3.7714 2.6000 2.5000 45 213 196
3.6571 2.6000 2.5000 45 213 196
3.5429 2.6000 2.5000 45 213 196
3.4286 2.6000 2.5000 45 213 196
3.3143 2.6000 2.5000 45 213 196
3.2000 2.6000 2.5000 45 213 196
3.0857 2.6000 2.5000 45 213 196
2.9714 2.6000 2.5000 45 213 196
2.8571 2.6000 2.5000 45 213 196
2.7429 2.6000 2.5000 45 213 196
2.6286 2.6000 2.5000 45 213 196
2.5143 2.6000 2.5000 45 213 196
2.4000 2.6000 2.5000 45 213 196
2.2857 2.6000 2.5000 45 213 196
2.1714 2.6000 2.5000 45 213 196
2.0571 2.6000 2.5000 45 213 196
1.9429 2.6000 2.5000 45 213 196
1.8286 2.6000 2.5000 45 213 196
1.7143 2.6000 2.5000 45 213 196
1.6000 2.6000 2.5000 45 213 196
1.4857 2.6000 2.5000 45 213 196
1.3714 2.6000 2.5000 45 213 196
1.2571 2.6000 2.5000 45 213 196
1.1429 2.6000 2.5000 45 213 196
1.0286 2.6000 2.5000 45 213 196
0.9143 2.6000 2.5000 45 213 196
0.8000 2.6000 2.5000 45 213 196
0.6857 2.6000 2.5000 45 213 196
0.5714 2.6000 2.5000 45 213 196
0.4571 2.6000 2.5000 45 213 196
0.3429 2.6000 2.5000 45 213 196
0.2286 2.6000 2.5000 45 213 196
0.1143 2.6000 2.5000 45 213 196
0.0000 2.6000 2.5000 45 213 196
-0.1143 2.6000 2.5000 45 213 196
-0.2286 2.6000 2.5000 45 213 196
-0.3429 2.6000 2.5000 45 213 196
-0.4571 2.6000 2.5000 45 213 196
-0.5714 2.6000 2.5000 45 213 196
-0.6857 2.6000 2.5000 45 213 196
-0.8000 2.6000 2.5000 45 213 196
-0.9143 2.6000 2.5000 45 213 196
-1.0286 2.6000 2.5000 45 213 196
-1.1429 2.6000 2.5000 45 213 196
-1.2571 2.6000 2.5000 45 213 196
-1.3714 2.6000 2.5000 45 213 196
-1.4857 2.6000 2.5000 45 213 196
-1.6000 2.6000 2.5000 45 213 196
-1.7143 2.6000 2.5000 45 213 196
-1.8286 2.6000 2.5000 45 213 196
-1.9429 2.6000 2.5000 45 213 196
-2.0571 2.6000 2.5000 45 213 196
-2.1714 2.6000 2.5000 45 213 196
-2.2857 2.6000 2.5000 45 213 196
-2.4000 2.6000 2.5000 45 213 196
-2.5143 2.6000 2.5000 45 213 196
-2.6286 2.6000 2.5000 45 213 196
-2.7429 2.6000 2.5000 45 213 196
-2.8571 2.6000 2.5000 45 213 196
-2.9714 2.6000 2.5000 45 213 196
-3.0857 2.6000 2.5000 45 213 196
-3.2000 2.6000 2.5000 45 213 196
-3.3143 2.6000 2.5000 45 213 196
-3.4286 2.6000 2.5000 45 213 196
-3.5429 2.6000 2.5000 45 213 196
-3.6571 2.6000 2.5000 45 213 196
-3.7714 2.6000 2.5000 45 213 196
-3.8857 2.6000 2.5000 45 213 196
-4.0000 2.6000 2.5000 45 213 196
-4.0000 0.0000 2.5000 45 213 196
-4.0000 0.0000 2.4286 45 213 196
-4.0000 0.0000 2.3571 45 213 196
-4.0000 0.0000 2.2857 45 213 196
-4.0000 0.0000 2.2143 45 213 196
-4.0000 0.0000 2.1429 45 213 196
-4.0000 0.0000 2.0714 45 213 196
-4.0000 0.0000 2.0000 45 213 196
-4.0000 0.0000 1.9286 45 213 196
-4.0000 0.0000 1.8571 45 213 196
-4.0000 0.0000 1.7857 45 213 196
-4.0000 0.0000 1.7143 45 213 196
-4.0000 0.0000 1.6429 45 213 196
-4.0000 0.0000 1.5714 45 213 196
-4.0000 0.0000 1.5000 45 213 196
-4.0000 0.0000 1.4286 45 213 196
-4.0000 0.0000 1.3571 45 213 196
-4.0000 0.0000 1.2857 45 213 196
-4.0000 0.0000 1.2143 45 213 196
-4.0000 0.0000 1.1429 45 213 196
-4.0000 0.0000 1.0714 45 213 196
-4.0000 0.0000 1.0000 45 213 196
-4.0000 0.0000 0.9286 45 213 196
-4.0000 0.0000 0.8571 45 213 196
-4.0000 0.0000 0.7857 45 213 196
-4.0000 0.0000 0.7143 45 213 196
-4.0000 0.0000 0.6429 45 213 196
-4.0000 0.0000 0.5714 45 213 196
-4.0000 0.0000 0.5000 45 213 196
-4.0000 0.0000 0.4286 45 213 196
-4.0000 0.0000 0.3571 45 213 196
-4.0000 0.0000 0.2857 45 213 196
-4.0000 0.0000 0.2143 45 213 196
-4.0000 0.0000 0.1429 45 213 196
-4.0000 0.0000 0.0714 45 213 196
-4.0000 0.0000 0.0000 45 213 196
-4.0000 0.0000 -0.0714 45 213 196
-4.0000 0.0000 -0.1429 45 213 196
-4.0000 0.0000 -0.2143 45 213 196
-4.0000 0.0000 -0.2857 45 213 196
-4.0000 0.0000 -0.3571 45 213 196
-4.0000 0.0000 -0.4286 45 213 196
-4.0000 0.0000 -0.5000 45 213 196
-4.0000 0.0000 -0.5714 45 213 196
-4.0000 0.0000 -0.6429 45 213 196
-4.0000 0.0000 -0.7143 45 213 196
-4.0000 0.0000 -0.7857 45 213 196
-4.0000 0.0000 -0.8571 45 213 196
-4.0000 0.0000 -0.9286 45 213 196
-4.0000 0.0000 -1.0000 45 213 196
-4.0000 0.0000 -1.0714 45 213 196
-4.0000 0.0000 -1.1429 45 213 196
-4.0000 0.0000 -1.2143 45 213 196
-4.0000 0.0000 -1.2857 45 213 196
-4.0000 0.0000 -1.3571 45 213 196
-4.0000 0.0000 -1.4286 45 213 196
-4.0000 0.0000 -1.5000 45 213 196
-4.0000 0.0000 -1.5714 45 213 196
-4.0000 0.0000 -1.6429 45 213 196
-4.0000 0.0000 -1.7143 45 213 196
-4.0000 0.0000 -1.7857 45 213 196
-4.0000 0.0000 -1.8571 45 213 196
-4.0000 0.0000 -1.9286 45 213 196
-4.0000 0.0000 -2.0000 45 213 196
-4.0000 0.0000 -2.0714 45 213 196
-4.0000 0.0000 -2.1429 45 213 196
-4.0000 0.0000 -2.2143 45 213 196
-4.0000 0.0000 -2.2857 45 213 196
-4.0000 0.0000 -2.3571 45 213 196
-4.0000 0.0000 -2.4286 45 213 196
-4.0000 0.0000 -2.5000 45 213 196
-4.0000 0.0000 2.5000 45 213 196
-4.0000 0.1000 2.5000 45 213 196
-4.0000 0.2000 2.5000 45 213 196
-4.0000 0.3000 2.5000 45 213 196
-4.0000 0.4000 2.5000 45 213 196
-4.0000 0.5000 2.5000 45 213 196
-4.0000 0.6000 2.5000 45 213 196
-4.0000 0.7000 2.5000 45 213 196
-4.0000 0.8000 2.5000 45 213 196
-4.0000 0.9000 2.5000 45 213 196
-4.0000 1.0000 2.5000 45 213 196
-4.0000 1.1000 2.5000 45 213 196
-4.0000 1.2000 2.5000 45 213 196
-4.0000 1.3000 2.5000 45 213 196
-4.0000 1.4000 2.5000 45 213 196
-4.0000 1.5000 2.5000 45 213 196
-4.0000 1.6000 2.5000 45 213 196
-4.0000 1.7000 2.5000 45 213 196
-4.0000 1.8000 2.5000 45 213 196
-4.0000 1.9000 2.5000 45 213 196
-4.0000 2.0000 2.5000 45 213 196
-4.0000 2.1000 2.5000 45 213 196
-4.0000 2.2000 2.5000 45 213 196
-4.0000 2.3000 2.5000 45 213 196
-4.0000 2.4000 2.5000 45 213 196
-4.0000 2.5000 2.5000 45 213 196
-4.0000 2.6000 2.5000 45 213 196
-4.0000 2.6000 2.5000 45 213 196
-4.0000 2.6000 2.4286 45 213 196
-4.0000 2.6000 2.3571 45 213 196
-4.0000 2.6000 2.2857 45 213 196
-4.0000 2.6000 2.2143 45 213 196
-4.0000 2.6000 2.1429 45 213 196
-4.0000 2.6000 2.0714 45 213 196
-4.0000 2.6000 2.0000 45 213 196
-4.0000 2.6000 1.9286 45 213 196
-4.0000 2.6000 1.8571 45 213 196
-4.0000 2.6000 1.7857 45 213 196
-4.0000 2.6000 1.7143 45 213 196
-4.0000 2.6000 1.6429 45 213 196
-4.0000 2.6000 1.5714 45 213 196
-4.0000 2.6000 1.5000 45 213 196
-4.0000 2.6000 1.4286 45 213 196
-4.0000 2.6000 1.3571 45 213 196
-4.0000 2.6000 1.2857 45 213 196
-4.0000 2.6000 1.2143 45 213 196
-4.0000 2.6000 1.1429 45 213 196
-4.0000 2.6000 1.0714 45 213 196
-4.0000 2.6000 1.0000 45 213 196
-4.0000 2.6000 0.9286 45 213 196
-4.0000 2.6000 0.8571 45 213 196
-4.0000 2.6000 0.7857 45 213 196
-4.0000 2.6000 0.7143 45 213 196
-4.0000 2.6000 0.6429 45 213 196
-4.0000 2.6000 0.5714 45 213 196
-4.0000 2.6000 0.5000 45 213 196
-4.0000 2.6000 0.4286 45 213 196
-4.0000 2.6000 0.3571 45 213 196
-4.0000 2.6000 0.2857 45 213 196
-4.0000 2.6000 0.2143 45 213 196
-4.0000 2.6000 0.1429 45 213 196
-4.0000 2.6000 0.0714 45 213 196
-4.0000 2.6000 0.0000 45 213 196
-4.0000 2.6000 -0.0714 45 213 196
-4.0000 2.6000 -0.1429 45 213 196
-4.0000 2.6000 -0.2143 45 213 196
-4.0000 2.6000 -0.2857 45 213 196
-4.0000 2.6000 -0.3571 45 213 196
-4.0000 2.6000 -0.4286 45 213 196
-4.0000 2.6000 -0.5000 45 213 196
-4.0000 2.6000 -0.5714 45 213 196
-4.0000 2.6000 -0.6429 45 213 196
-4.0000 2.6000 -0.7143 45 213 196
-4.0000 2.6000 -0.7857 45 213 196
-4.0000 2.6000 -0.8571 45 213 196
-4.0000 2.6000 -0.9286 45 213 196
-4.0000 2.6000 -1.0000 45 213 196
-4.0000 2.6000 -1.0714 45 213 196
-4.0000 2.6000 -1.1429 45 213 196
-4.0000 2.6000 -1.2143 45 213 196
-4.0000 2.6000 -1.2857 45 213 196
-4.0000 2.6000 -1.3571 45 213 196
-4.0000 2.6000 -1.4286 45 213 196
-4.0000 2.6000 -1.5000 45 213 196
-4.0000 2.6000 -1.5714 45 213 196
-4.0000 2.6000 -1.6429 45 213 196
-4.0000 2.6000 -1.7143 45 213 196
-4.0000 2.6000 -1.7857 45 213 196
-4.0000 2.6000 -1.8571 45 213 196
-4.0000 2.6000 -1.9286 45 213 196
-4.0000 2.6000 -2.0000 45 213 196
-4.0000 2.6000 -2.0714 45 213 196
-4.0000 2.6000 -2.1429 45 213 196
-4.0000 2.6000 -2.2143 45 213 196
-4.0000 2.6000 -2.2857 45 213 196
-4.0000 2.6000 -2.3571 45 213 196
-4.0000 2.6000 -2.4286 45 213 196
-4.0000 2.6000 -2.5000 45 213 196
