ply
format ascii 1.0
comment Synthetic demo room; contains no captured site data.
element vertex 2920
property float x
property float y
property float z
property uchar red
property uchar green
property uchar blue
end_header
-4.0000 0.0000 -2.5000 102 137 173
-4.0000 0.0000 -2.3000 102 137 173
-4.0000 0.0000 -2.1000 102 137 173
-4.0000 0.0000 -1.9000 102 137 173
-4.0000 0.0000 -1.7000 102 137 173
-4.0000 0.0000 -1.5000 102 137 173
-4.0000 0.0000 -1.3000 102 137 173
-4.0000 0.0000 -1.1000 102 137 173
-4.0000 0.0000 -0.9000 102 137 173
-4.0000 0.0000 -0.7000 102 137 173
-4.0000 0.0000 -0.5000 102 137 173
-4.0000 0.0000 -0.3000 102 137 173
-4.0000 0.0000 -0.1000 102 137 173
-4.0000 0.0000 0.1000 102 137 173
-4.0000 0.0000 0.3000 102 137 173
-4.0000 0.0000 0.5000 102 137 173
-4.0000 0.0000 0.7000 102 137 173
-4.0000 0.0000 0.9000 102 137 173
-4.0000 0.0000 1.1000 102 137 173
-4.0000 0.0000 1.3000 102 137 173
-4.0000 0.0000 1.5000 102 137 173
-4.0000 0.0000 1.7000 102 137 173
-4.0000 0.0000 1.9000 102 137 173
-4.0000 0.0000 2.1000 102 137 173
-4.0000 0.0000 2.3000 102 137 173
-4.0000 0.0000 2.5000 102 137 173
-3.8000 0.0000 -2.5000 102 137 173
-3.8000 0.0000 -2.3000 102 137 173
-3.8000 0.0000 -2.1000 102 137 173
-3.8000 0.0000 -1.9000 102 137 173
-3.8000 0.0000 -1.7000 102 137 173
-3.8000 0.0000 -1.5000 102 137 173
-3.8000 0.0000 -1.3000 102 137 173
-3.8000 0.0000 -1.1000 102 137 173
-3.8000 0.0000 -0.9000 102 137 173
-3.8000 0.0000 -0.7000 102 137 173
-3.8000 0.0000 -0.5000 102 137 173
-3.8000 0.0000 -0.3000 102 137 173
-3.8000 0.0000 -0.1000 102 137 173
-3.8000 0.0000 0.1000 102 137 173
-3.8000 0.0000 0.3000 102 137 173
-3.8000 0.0000 0.5000 102 137 173
-3.8000 0.0000 0.7000 102 137 173
-3.8000 0.0000 0.9000 102 137 173
-3.8000 0.0000 1.1000 102 137 173
-3.8000 0.0000 1.3000 102 137 173
-3.8000 0.0000 1.5000 102 137 173
-3.8000 0.0000 1.7000 102 137 173
-3.8000 0.0000 1.9000 102 137 173
-3.8000 0.0000 2.1000 102 137 173
-3.8000 0.0000 2.3000 102 137 173
-3.8000 0.0000 2.5000 102 137 173
-3.6000 0.0000 -2.5000 102 137 173
-3.6000 0.0000 -2.3000 102 137 173
-3.6000 0.0000 -2.1000 102 137 173
-3.6000 0.0000 -1.9000 102 137 173
-3.6000 0.0000 -1.7000 102 137 173
-3.6000 0.0000 -1.5000 102 137 173
-3.6000 0.0000 -1.3000 102 137 173
-3.6000 0.0000 -1.1000 102 137 173
-3.6000 0.0000 -0.9000 102 137 173
-3.6000 0.0000 -0.7000 102 137 173
-3.6000 0.0000 -0.5000 102 137 173
-3.6000 0.0000 -0.3000 102 137 173
-3.6000 0.0000 -0.1000 102 137 173
-3.6000 0.0000 0.1000 102 137 173
-3.6000 0.0000 0.3000 102 137 173
-3.6000 0.0000 0.5000 102 137 173
-3.6000 0.0000 0.7000 102 137 173
-3.6000 0.0000 0.9000 102 137 173
-3.6000 0.0000 1.1000 102 137 173
-3.6000 0.0000 1.3000 102 137 173
-3.6000 0.0000 1.5000 102 137 173
-3.6000 0.0000 1.7000 102 137 173
-3.6000 0.0000 1.9000 102 137 173
-3.6000 0.0000 2.1000 102 137 173
-3.6000 0.0000 2.3000 102 137 173
-3.6000 0.0000 2.5000 102 137 173
-3.4000 0.0000 -2.5000 102 137 173
-3.4000 0.0000 -2.3000 102 137 173
-3.4000 0.0000 -2.1000 102 137 173
-3.4000 0.0000 -1.9000 102 137 173
-3.4000 0.0000 -1.7000 102 137 173
-3.4000 0.0000 -1.5000 102 137 173
-3.4000 0.0000 -1.3000 102 137 173
-3.4000 0.0000 -1.1000 102 137 173
-3.4000 0.0000 -0.9000 102 137 173
-3.4000 0.0000 -0.7000 102 137 173
-3.4000 0.0000 -0.5000 102 137 173
-3.4000 0.0000 -0.3000 102 137 173
-3.4000 0.0000 -0.1000 102 137 173
-3.4000 0.0000 0.1000 102 137 173
-3.4000 0.0000 0.3000 102 137 173
-3.4000 0.0000 0.5000 102 137 173
-3.4000 0.0000 0.7000 102 137 173
-3.4000 0.0000 0.9000 102 137 173
-3.4000 0.0000 1.1000 102 137 173
-3.4000 0.0000 1.3000 102 137 173
-3.4000 0.0000 1.5000 102 137 173
-3.4000 0.0000 1.7000 102 137 173
-3.4000 0.0000 1.9000 102 137 173
-3.4000 0.0000 2.1000 102 137 173
-3.4000 0.0000 2.3000 102 137 173
-3.4000 0.0000 2.5000 102 137 173
-3.2000 0.0000 -2.5000 102 137 173
-3.2000 0.0000 -2.3000 102 137 173
-3.2000 0.0000 -2.1000 102 137 173
-3.2000 0.0000 -1.9000 102 137 173
-3.2000 0.0000 -1.7000 102 137 173
-3.2000 0.0000 -1.5000 102 137 173
-3.2000 0.0000 -1.3000 102 137 173
-3.2000 0.0000 -1.1000 102 137 173
-3.2000 0.0000 -0.9000 102 137 173
-3.2000 0.0000 -0.7000 102 137 173
-3.2000 0.0000 -0.5000 102 137 173
-3.2000 0.0000 -0.3000 102 137 173
-3.2000 0.0000 -0.1000 102 137 173
-3.2000 0.0000 0.1000 102 137 173
-3.2000 0.0000 0.3000 102 137 173
-3.2000 0.0000 0.5000 102 137 173
-3.2000 0.0000 0.7000 102 137 173
-3.2000 0.0000 0.9000 102 137 173
-3.2000 0.0000 1.1000 102 137 173
-3.2000 0.0000 1.3000 102 137 173
-3.2000 0.0000 1.5000 102 137 173
-3.2000 0.0000 1.7000 102 137 173
-3.2000 0.0000 1.9000 102 137 173
-3.2000 0.0000 2.1000 102 137 173
-3.2000 0.0000 2.3000 102 137 173
-3.2000 0.0000 2.5000 102 137 173
-3.0000 0.0000 -2.5000 102 137 173
-3.0000 0.0000 -2.3000 102 137 173
-3.0000 0.0000 -2.1000 102 137 173
-3.0000 0.0000 -1.9000 102 137 173
-3.0000 0.0000 -1.7000 102 137 173
-3.0000 0.0000 -1.5000 102 137 173
-3.0000 0.0000 -1.3000 102 137 173
-3.0000 0.0000 -1.1000 102 137 173
-3.0000 0.0000 -0.9000 102 137 173
-3.0000 0.0000 -0.7000 102 137 173
-3.0000 0.0000 -0.5000 102 137 173
-3.0000 0.0000 -0.3000 102 137 173
-3.0000 0.0000 -0.1000 102 137 173
-3.0000 0.0000 0.1000 102 137 173
-3.0000 0.0000 0.3000 102 137 173
-3.0000 0.0000 0.5000 102 137 173
-3.0000 0.0000 0.7000 102 137 173
-3.0000 0.0000 0.9000 102 137 173
-3.0000 0.0000 1.1000 102 137 173
-3.0000 0.0000 1.3000 102 137 173
-3.0000 0.0000 1.5000 102 137 173
-3.0000 0.0000 1.7000 102 137 173
-3.0000 0.0000 1.9000 102 137 173
-3.0000 0.0000 2.1000 102 137 173
-3.0000 0.0000 2.3000 102 137 173
-3.0000 0.0000 2.5000 102 137 173
-2.8000 0.0000 -2.5000 102 137 173
-2.8000 0.0000 -2.3000 102 137 173
-2.8000 0.0000 -2.1000 102 137 173
-2.8000 0.0000 -1.9000 102 137 173
-2.8000 0.0000 -1.7000 102 137 173
-2.8000 0.0000 -1.5000 102 137 173
-2.8000 0.0000 -1.3000 102 137 173
-2.8000 0.0000 -1.1000 102 137 173
-2.8000 0.0000 -0.9000 102 137 173
-2.8000 0.0000 -0.7000 102 137 173
-2.8000 0.0000 -0.5000 102 137 173
-2.8000 0.0000 -0.3000 102 137 173
-2.8000 0.0000 -0.1000 102 137 173
-2.8000 0.0000 0.1000 102 137 173
-2.8000 0.0000 0.3000 102 137 173
-2.8000 0.0000 0.5000 102 137 173
-2.8000 0.0000 0.7000 102 137 173
-2.8000 0.0000 0.9000 102 137 173
-2.8000 0.0000 1.1000 102 137 173
-2.8000 0.0000 1.3000 102 137 173
-2.8000 0.0000 1.5000 102 137 173
-2.8000 0.0000 1.7000 102 137 173
-2.8000 0.0000 1.9000 102 137 173
-2.8000 0.0000 2.1000 102 137 173
-2.8000 0.0000 2.3000 102 137 173
-2.8000 0.0000 2.5000 102 137 173
-2.6000 0.0000 -2.5000 102 137 173
-2.6000 0.0000 -2.3000 102 137 173
-2.6000 0.0000 -2.1000 102 137 173
-2.6000 0.0000 -1.9000 102 137 173
-2.6000 0.0000 -1.7000 102 137 173
-2.6000 0.0000 -1.5000 102 137 173
-2.6000 0.0000 -1.3000 102 137 173
-2.6000 0.0000 -1.1000 102 137 173
-2.6000 0.0000 -0.9000 102 137 173
-2.6000 0.0000 -0.7000 102 137 173
-2.6000 0.0000 -0.5000 102 137 173
-2.6000 0.0000 -0.3000 102 137 173
-2.6000 0.0000 -0.1000 102 137 173
-2.6000 0.0000 0.1000 102 137 173
-2.6000 0.0000 0.3000 102 137 173
-2.6000 0.0000 0.5000 102 137 173
-2.6000 0.0000 0.7000 102 137 173
-2.6000 0.0000 0.9000 102 137 173
-2.6000 0.0000 1.1000 102 137 173
-2.6000 0.0000 1.3000 102 137 173
-2.6000 0.0000 1.5000 102 137 173
-2.6000 0.0000 1.7000 102 137 173
-2.6000 0.0000 1.9000 102 137 173
-2.6000 0.0000 2.1000 102 137 173
-2.6000 0.0000 2.3000 102 137 173
-2.6000 0.0000 2.5000 102 137 173
-2.4000 0.0000 -2.5000 102 137 173
-2.4000 0.0000 -2.3000 102 137 173
-2.4000 0.0000 -2.1000 102 137 173
-2.4000 0.0000 -1.9000 102 137 173
-2.4000 0.0000 -1.7000 102 137 173
-2.4000 0.0000 -1.5000 102 137 173
-2.4000 0.0000 -1.3000 102 137 173
-2.4000 0.0000 -1.1000 102 137 173
-2.4000 0.0000 -0.9000 102 137 173
-2.4000 0.0000 -0.7000 102 137 173
-2.4000 0.0000 -0.5000 102 137 173
-2.4000 0.0000 -0.3000 102 137 173
-2.4000 0.0000 -0.1000 102 137 173
-2.4000 0.0000 0.1000 102 137 173
-2.4000 0.0000 0.3000 102 137 173
-2.4000 0.0000 0.5000 102 137 173
-2.4000 0.0000 0.7000 102 137 173
-2.4000 0.0000 0.9000 102 137 173
-2.4000 0.0000 1.1000 102 137 173
-2.4000 0.0000 1.3000 102 137 173
-2.4000 0.0000 1.5000 102 137 173
-2.4000 0.0000 1.7000 102 137 173
-2.4000 0.0000 1.9000 102 137 173
-2.4000 0.0000 2.1000 102 137 173
-2.4000 0.0000 2.3000 102 137 173
-2.4000 0.0000 2.5000 102 137 173
-2.2000 0.0000 -2.5000 102 137 173
-2.2000 0.0000 -2.3000 102 137 173
-2.2000 0.0000 -2.1000 102 137 173
-2.2000 0.0000 -1.9000 102 137 173
-2.2000 0.0000 -1.7000 102 137 173
-2.2000 0.0000 -1.5000 102 137 173
-2.2000 0.0000 -1.3000 102 137 173
-2.2000 0.0000 -1.1000 102 137 173
-2.2000 0.0000 -0.9000 102 137 173
-2.2000 0.0000 -0.7000 102 137 173
-2.2000 0.0000 -0.5000 102 137 173
-2.2000 0.0000 -0.3000 102 137 173
-2.2000 0.0000 -0.1000 102 137 173
-2.2000 0.0000 0.1000 102 137 173
-2.2000 0.0000 0.3000 102 137 173
-2.2000 0.0000 0.5000 102 137 173
-2.2000 0.0000 0.7000 102 137 173
-2.2000 0.0000 0.9000 102 137 173
-2.2000 0.0000 1.1000 102 137 173
-2.2000 0.0000 1.3000 102 137 173
-2.2000 0.0000 1.5000 102 137 173
-2.2000 0.0000 1.7000 102 137 173
-2.2000 0.0000 1.9000 102 137 173
-2.2000 0.0000 2.1000 102 137 173
-2.2000 0.0000 2.3000 102 137 173
-2.2000 0.0000 2.5000 102 137 173
-2.0000 0.0000 -2.5000 102 137 173
-2.0000 0.0000 -2.3000 102 137 173
-2.0000 0.0000 -2.1000 102 137 173
-2.0000 0.0000 -1.9000 102 137 173
-2.0000 0.0000 -1.7000 102 137 173
-2.0000 0.0000 -1.5000 102 137 173
-2.0000 0.0000 -1.3000 102 137 173
-2.0000 0.0000 -1.1000 102 137 173
-2.0000 0.0000 -0.9000 102 137 173
-2.0000 0.0000 -0.7000 102 137 173
-2.0000 0.0000 -0.5000 102 137 173
-2.0000 0.0000 -0.3000 102 137 173
-2.0000 0.0000 -0.1000 102 137 173
-2.0000 0.0000 0.1000 102 137 173
-2.0000 0.0000 0.3000 102 137 173
-2.0000 0.0000 0.5000 102 137 173
-2.0000 0.0000 0.7000 102 137 173
-2.0000 0.0000 0.9000 102 137 173
-2.0000 0.0000 1.1000 102 137 173
-2.0000 0.0000 1.3000 102 137 173
-2.0000 0.0000 1.5000 102 137 173
-2.0000 0.0000 1.7000 102 137 173
-2.0000 0.0000 1.9000 102 137 173
-2.0000 0.0000 2.1000 102 137 173
-2.0000 0.0000 2.3000 102 137 173
-2.0000 0.0000 2.5000 102 137 173
-1.8000 0.0000 -2.5000 102 137 173
-1.8000 0.0000 -2.3000 102 137 173
-1.8000 0.0000 -2.1000 102 137 173
-1.8000 0.0000 -1.9000 102 137 173
-1.8000 0.0000 -1.7000 102 137 173
-1.8000 0.0000 -1.5000 102 137 173
-1.8000 0.0000 -1.3000 102 137 173
-1.8000 0.0000 -1.1000 102 137 173
-1.8000 0.0000 -0.9000 102 137 173
-1.8000 0.0000 -0.7000 102 137 173
-1.8000 0.0000 -0.5000 102 137 173
-1.8000 0.0000 -0.3000 102 137 173
-1.8000 0.0000 -0.1000 102 137 173
-1.8000 0.0000 0.1000 102 137 173
-1.8000 0.0000 0.3000 102 137 173
-1.8000 0.0000 0.5000 102 137 173
-1.8000 0.0000 0.7000 102 137 173
-1.8000 0.0000 0.9000 102 137 173
-1.8000 0.0000 1.1000 102 137 173
-1.8000 0.0000 1.3000 102 137 173
-1.8000 0.0000 1.5000 102 137 173
-1.8000 0.0000 1.7000 102 137 173
-1.8000 0.0000 1.9000 102 137 173
-1.8000 0.0000 2.1000 102 137 173
-1.8000 0.0000 2.3000 102 137 173
-1.8000 0.0000 2.5000 102 137 173
-1.6000 0.0000 -2.5000 102 137 173
-1.6000 0.0000 -2.3000 102 137 173
-1.6000 0.0000 -2.1000 102 137 173
-1.6000 0.0000 -1.9000 102 137 173
-1.6000 0.0000 -1.7000 102 137 173
-1.6000 0.0000 -1.5000 102 137 173
-1.6000 0.0000 -1.3000 102 137 173
-1.6000 0.0000 -1.1000 102 137 173
-1.6000 0.0000 -0.9000 102 137 173
-1.6000 0.0000 -0.7000 102 137 173
-1.6000 0.0000 -0.5000 102 137 173
-1.6000 0.0000 -0.3000 102 137 173
-1.6000 0.0000 -0.1000 102 137 173
-1.6000 0.0000 0.1000 102 137 173
-1.6000 0.0000 0.3000 102 137 173
-1.6000 0.0000 0.5000 102 137 173
-1.6000 0.0000 0.7000 102 137 173
-1.6000 0.0000 0.9000 102 137 173
-1.6000 0.0000 1.1000 102 137 173
-1.6000 0.0000 1.3000 102 137 173
-1.6000 0.0000 1.5000 102 137 173
-1.6000 0.0000 1.7000 102 137 173
-1.6000 0.0000 1.9000 102 137 173
-1.6000 0.0000 2.1000 102 137 173
-1.6000 0.0000 2.3000 102 137 173
-1.6000 0.0000 2.5000 102 137 173
-1.4000 0.0000 -2.5000 102 137 173
-1.4000 0.0000 -2.3000 102 137 173
-1.4000 0.0000 -2.1000 102 137 173
-1.4000 0.0000 -1.9000 102 137 173
-1.4000 0.0000 -1.7000 102 137 173
-1.4000 0.0000 -1.5000 102 137 173
-1.4000 0.0000 -1.3000 102 137 173
-1.4000 0.0000 -1.1000 102 137 173
-1.4000 0.0000 -0.9000 102 137 173
-1.4000 0.0000 -0.7000 102 137 173
-1.4000 0.0000 -0.5000 102 137 173
-1.4000 0.0000 -0.3000 102 137 173
-1.4000 0.0000 -0.1000 102 137 173
-1.4000 0.0000 0.1000 102 137 173
-1.4000 0.0000 0.3000 102 137 173
-1.4000 0.0000 0.5000 102 137 173
-1.4000 0.0000 0.7000 102 137 173
-1.4000 0.0000 0.9000 102 137 173
-1.4000 0.0000 1.1000 102 137 173
-1.4000 0.0000 1.3000 102 137 173
-1.4000 0.0000 1.5000 102 137 173
-1.4000 0.0000 1.7000 102 137 173
-1.4000 0.0000 1.9000 102 137 173
-1.4000 0.0000 2.1000 102 137 173
-1.4000 0.0000 2.3000 102 137 173
-1.4000 0.0000 2.5000 102 137 173
-1.2000 0.0000 -2.5000 102 137 173
-1.2000 0.0000 -2.3000 102 137 173
-1.2000 0.0000 -2.1000 102 137 173
-1.2000 0.0000 -1.9000 102 137 173
-1.2000 0.0000 -1.7000 102 137 173
-1.2000 0.0000 -1.5000 102 137 173
-1.2000 0.0000 -1.3000 102 137 173
-1.2000 0.0000 -1.1000 102 137 173
-1.2000 0.0000 -0.9000 102 137 173
-1.2000 0.0000 -0.7000 102 137 173
-1.2000 0.0000 -0.5000 102 137 173
-1.2000 0.0000 -0.3000 102 137 173
-1.2000 0.0000 -0.1000 102 137 173
-1.2000 0.0000 0.1000 102 137 173
-1.2000 0.0000 0.3000 102 137 173
-1.2000 0.0000 0.5000 102 137 173
-1.2000 0.0000 0.7000 102 137 173
-1.2000 0.0000 0.9000 102 137 173
-1.2000 0.0000 1.1000 102 137 173
-1.2000 0.0000 1.3000 102 137 173
-1.2000 0.0000 1.5000 102 137 173
-1.2000 0.0000 1.7000 102 137 173
-1.2000 0.0000 1.9000 102 137 173
-1.2000 0.0000 2.1000 102 137 173
-1.2000 0.0000 2.3000 102 137 173
-1.2000 0.0000 2.5000 102 137 173
-1.0000 0.0000 -2.5000 102 137 173
-1.0000 0.0000 -2.3000 102 137 173
-1.0000 0.0000 -2.1000 102 137 173
-1.0000 0.0000 -1.9000 102 137 173
-1.0000 0.0000 -1.7000 102 137 173
-1.0000 0.0000 -1.5000 102 137 173
-1.0000 0.0000 -1.3000 102 137 173
-1.0000 0.0000 -1.1000 102 137 173
-1.0000 0.0000 -0.9000 102 137 173
-1.0000 0.0000 -0.7000 102 137 173
-1.0000 0.0000 -0.5000 102 137 173
-1.0000 0.0000 -0.3000 102 137 173
-1.0000 0.0000 -0.1000 102 137 173
-1.0000 0.0000 0.1000 102 137 173
-1.0000 0.0000 0.3000 102 137 173
-1.0000 0.0000 0.5000 102 137 173
-1.0000 0.0000 0.7000 102 137 173
-1.0000 0.0000 0.9000 102 137 173
-1.0000 0.0000 1.1000 102 137 173
-1.0000 0.0000 1.3000 102 137 173
-1.0000 0.0000 1.5000 102 137 173
-1.0000 0.0000 1.7000 102 137 173
-1.0000 0.0000 1.9000 102 137 173
-1.0000 0.0000 2.1000 102 137 173
-1.0000 0.0000 2.3000 102 137 173
-1.0000 0.0000 2.5000 102 137 173
-0.8000 0.0000 -2.5000 102 137 173
-0.8000 0.0000 -2.3000 102 137 173
-0.8000 0.0000 -2.1000 102 137 173
-0.8000 0.0000 -1.9000 102 137 173
-0.8000 0.0000 -1.7000 102 137 173
-0.8000 0.0000 -1.5000 102 137 173
-0.8000 0.0000 -1.3000 102 137 173
-0.8000 0.0000 -1.1000 102 137 173
-0.8000 0.0000 -0.9000 102 137 173
-0.8000 0.0000 -0.7000 102 137 173
-0.8000 0.0000 -0.5000 102 137 173
-0.8000 0.0000 -0.3000 102 137 173
-0.8000 0.0000 -0.1000 102 137 173
-0.8000 0.0000 0.1000 102 137 173
-0.8000 0.0000 0.3000 102 137 173
-0.8000 0.0000 0.5000 102 137 173
-0.8000 0.0000 0.7000 102 137 173
-0.8000 0.0000 0.9000 102 137 173
-0.8000 0.0000 1.1000 102 137 173
-0.8000 0.0000 1.3000 102 137 173
-0.8000 0.0000 1.5000 102 137 173
-0.8000 0.0000 1.7000 102 137 173
-0.8000 0.0000 1.9000 102 137 173
-0.8000 0.0000 2.1000 102 137 173
-0.8000 0.0000 2.3000 102 137 173
-0.8000 0.0000 2.5000 102 137 173
-0.6000 0.0000 -2.5000 102 137 173
-0.6000 0.0000 -2.3000 102 137 173
-0.6000 0.0000 -2.1000 102 137 173
-0.6000 0.0000 -1.9000 102 137 173
-0.6000 0.0000 -1.7000 102 137 173
-0.6000 0.0000 -1.5000 102 137 173
-0.6000 0.0000 -1.3000 102 137 173
-0.6000 0.0000 -1.1000 102 137 173
-0.6000 0.0000 -0.9000 102 137 173
-0.6000 0.0000 -0.7000 102 137 173
-0.6000 0.0000 -0.5000 102 137 173
-0.6000 0.0000 -0.3000 102 137 173
-0.6000 0.0000 -0.1000 102 137 173
-0.6000 0.0000 0.1000 102 137 173
-0.6000 0.0000 0.3000 102 137 173
-0.6000 0.0000 0.5000 102 137 173
-0.6000 0.0000 0.7000 102 137 173
-0.6000 0.0000 0.9000 102 137 173
-0.6000 0.0000 1.1000 102 137 173
-0.6000 0.0000 1.3000 102 137 173
-0.6000 0.0000 1.5000 102 137 173
-0.6000 0.0000 1.7000 102 137 173
-0.6000 0.0000 1.9000 102 137 173
-0.6000 0.0000 2.1000 102 137 173
-0.6000 0.0000 2.3000 102 137 173
-0.6000 0.0000 2.5000 102 137 173
-0.4000 0.0000 -2.5000 102 137 173
-0.4000 0.0000 -2.3000 102 137 173
-0.4000 0.0000 -2.1000 102 137 173
-0.4000 0.0000 -1.9000 102 137 173
-0.4000 0.0000 -1.7000 102 137 173
-0.4000 0.0000 -1.5000 102 137 173
-0.4000 0.0000 -1.3000 102 137 173
-0.4000 0.0000 -1.1000 102 137 173
-0.4000 0.0000 -0.9000 102 137 173
-0.4000 0.0000 -0.7000 102 137 173
-0.4000 0.0000 -0.5000 102 137 173
-0.4000 0.0000 -0.3000 102 137 173
-0.4000 0.0000 -0.1000 102 137 173
-0.4000 0.0000 0.1000 102 137 173
-0.4000 0.0000 0.3000 102 137 173
-0.4000 0.0000 0.5000 102 137 173
-0.4000 0.0000 0.7000 102 137 173
-0.4000 0.0000 0.9000 102 137 173
-0.4000 0.0000 1.1000 102 137 173
-0.4000 0.0000 1.3000 102 137 173
-0.4000 0.0000 1.5000 102 137 173
-0.4000 0.0000 1.7000 102 137 173
-0.4000 0.0000 1.9000 102 137 173
-0.4000 0.0000 2.1000 102 137 173
-0.4000 0.0000 2.3000 102 137 173
-0.4000 0.0000 2.5000 102 137 173
-0.2000 0.0000 -2.5000 102 137 173
-0.2000 0.0000 -2.3000 102 137 173
-0.2000 0.0000 -2.1000 102 137 173
-0.2000 0.0000 -1.9000 102 137 173
-0.2000 0.0000 -1.7000 102 137 173
-0.2000 0.0000 -1.5000 102 137 173
-0.2000 0.0000 -1.3000 102 137 173
-0.2000 0.0000 -1.1000 102 137 173
-0.2000 0.0000 -0.9000 102 137 173
-0.2000 0.0000 -0.7000 102 137 173
-0.2000 0.0000 -0.5000 102 137 173
-0.2000 0.0000 -0.3000 102 137 173
-0.2000 0.0000 -0.1000 102 137 173
-0.2000 0.0000 0.1000 102 137 173
-0.2000 0.0000 0.3000 102 137 173
-0.2000 0.0000 0.5000 102 137 173
-0.2000 0.0000 0.7000 102 137 173
-0.2000 0.0000 0.9000 102 137 173
-0.2000 0.0000 1.1000 102 137 173
-0.2000 0.0000 1.3000 102 137 173
-0.2000 0.0000 1.5000 102 137 173
-0.2000 0.0000 1.7000 102 137 173
-0.2000 0.0000 1.9000 102 137 173
-0.2000 0.0000 2.1000 102 137 173
-0.2000 0.0000 2.3000 102 137 173
-0.2000 0.0000 2.5000 102 137 173
0.0000 0.0000 -2.5000 102 137 173
0.0000 0.0000 -2.3000 102 137 173
0.0000 0.0000 -2.1000 102 137 173
0.0000 0.0000 -1.9000 102 137 173
0.0000 0.0000 -1.7000 102 137 173
0.0000 0.0000 -1.5000 102 137 173
0.0000 0.0000 -1.3000 102 137 173
0.0000 0.0000 -1.1000 102 137 173
0.0000 0.0000 -0.9000 102 137 173
0.0000 0.0000 -0.7000 102 137 173
0.0000 0.0000 -0.5000 102 137 173
0.0000 0.0000 -0.3000 102 137 173
0.0000 0.0000 -0.1000 102 137 173
0.0000 0.0000 0.1000 102 137 173
0.0000 0.0000 0.3000 102 137 173
0.0000 0.0000 0.5000 102 137 173
0.0000 0.0000 0.7000 102 137 173
0.0000 0.0000 0.9000 102 137 173
0.0000 0.0000 1.1000 102 137 173
0.0000 0.0000 1.3000 102 137 173
0.0000 0.0000 1.5000 102 137 173
0.0000 0.0000 1.7000 102 137 173
0.0000 0.0000 1.9000 102 137 173
0.0000 0.0000 2.1000 102 137 173
0.0000 0.0000 2.3000 102 137 173
0.0000 0.0000 2.5000 102 137 173
0.2000 0.0000 -2.5000 102 137 173
0.2000 0.0000 -2.3000 102 137 173
0.2000 0.0000 -2.1000 102 137 173
0.2000 0.0000 -1.9000 102 137 173
0.2000 0.0000 -1.7000 102 137 173
0.2000 0.0000 -1.5000 102 137 173
0.2000 0.0000 -1.3000 102 137 173
0.2000 0.0000 -1.1000 102 137 173
0.2000 0.0000 -0.9000 102 137 173
0.2000 0.0000 -0.7000 102 137 173
0.2000 0.0000 -0.5000 102 137 173
0.2000 0.0000 -0.3000 102 137 173
0.2000 0.0000 -0.1000 102 137 173
0.2000 0.0000 0.1000 102 137 173
0.2000 0.0000 0.3000 102 137 173
0.2000 0.0000 0.5000 102 137 173
0.2000 0.0000 0.7000 102 137 173
0.2000 0.0000 0.9000 102 137 173
0.2000 0.0000 1.1000 102 137 173
0.2000 0.0000 1.3000 102 137 173
0.2000 0.0000 1.5000 102 137 173
0.2000 0.0000 1.7000 102 137 173
0.2000 0.0000 1.9000 102 137 173
0.2000 0.0000 2.1000 102 137 173
0.2000 0.0000 2.3000 102 137 173
0.2000 0.0000 2.5000 102 137 173
0.4000 0.0000 -2.5000 102 137 173
0.4000 0.0000 -2.3000 102 137 173
0.4000 0.0000 -2.1000 102 137 173
0.4000 0.0000 -1.9000 102 137 173
0.4000 0.0000 -1.7000 102 137 173
0.4000 0.0000 -1.5000 102 137 173
0.4000 0.0000 -1.3000 102 137 173
0.4000 0.0000 -1.1000 102 137 173
0.4000 0.0000 -0.9000 102 137 173
0.4000 0.0000 -0.7000 102 137 173
0.4000 0.0000 -0.5000 102 137 173
0.4000 0.0000 -0.3000 102 137 173
0.4000 0.0000 -0.1000 102 137 173
0.4000 0.0000 0.1000 102 137 173
0.4000 0.0000 0.3000 102 137 173
0.4000 0.0000 0.5000 102 137 173
0.4000 0.0000 0.7000 102 137 173
0.4000 0.0000 0.9000 102 137 173
0.4000 0.0000 1.1000 102 137 173
0.4000 0.0000 1.3000 102 137 173
0.4000 0.0000 1.5000 102 137 173
0.4000 0.0000 1.7000 102 137 173
0.4000 0.0000 1.9000 102 137 173
0.4000 0.0000 2.1000 102 137 173
0.4000 0.0000 2.3000 102 137 173
0.4000 0.0000 2.5000 102 137 173
0.6000 0.0000 -2.5000 102 137 173
0.6000 0.0000 -2.3000 102 137 173
0.6000 0.0000 -2.1000 102 137 173
0.6000 0.0000 -1.9000 102 137 173
0.6000 0.0000 -1.7000 102 137 173
0.6000 0.0000 -1.5000 102 137 173
0.6000 0.0000 -1.3000 102 137 173
0.6000 0.0000 -1.1000 102 137 173
0.6000 0.0000 -0.9000 102 137 173
0.6000 0.0000 -0.7000 102 137 173
0.6000 0.0000 -0.5000 102 137 173
0.6000 0.0000 -0.3000 102 137 173
0.6000 0.0000 -0.1000 102 137 173
0.6000 0.0000 0.1000 102 137 173
0.6000 0.0000 0.3000 102 137 173
0.6000 0.0000 0.5000 102 137 173
0.6000 0.0000 0.7000 102 137 173
0.6000 0.0000 0.9000 102 137 173
0.6000 0.0000 1.1000 102 137 173
0.6000 0.0000 1.3000 102 137 173
0.6000 0.0000 1.5000 102 137 173
0.6000 0.0000 1.7000 102 137 173
0.6000 0.0000 1.9000 102 137 173
0.6000 0.0000 2.1000 102 137 173
0.6000 0.0000 2.3000 102 137 173
0.6000 0.0000 2.5000 102 137 173
0.8000 0.0000 -2.5000 102 137 173
0.8000 0.0000 -2.3000 102 137 173
0.8000 0.0000 -2.1000 102 137 173
0.8000 0.0000 -1.9000 102 137 173
0.8000 0.0000 -1.7000 102 137 173
0.8000 0.0000 -1.5000 102 137 173
0.8000 0.0000 -1.3000 102 137 173
0.8000 0.0000 -1.1000 102 137 173
0.8000 0.0000 -0.9000 102 137 173
0.8000 0.0000 -0.7000 102 137 173
0.8000 0.0000 -0.5000 102 137 173
0.8000 0.0000 -0.3000 102 137 173
0.8000 0.0000 -0.1000 102 137 173
0.8000 0.0000 0.1000 102 137 173
0.8000 0.0000 0.3000 102 137 173
0.8000 0.0000 0.5000 102 137 173
0.8000 0.0000 0.7000 102 137 173
0.8000 0.0000 0.9000 102 137 173
0.8000 0.0000 1.1000 102 137 173
0.8000 0.0000 1.3000 102 137 173
0.8000 0.0000 1.5000 102 137 173
0.8000 0.0000 1.7000 102 137 173
0.8000 0.0000 1.9000 102 137 173
0.8000 0.0000 2.1000 102 137 173
0.8000 0.0000 2.3000 102 137 173
0.8000 0.0000 2.5000 102 137 173
1.0000 0.0000 -2.5000 102 137 173
1.0000 0.0000 -2.3000 102 137 173
1.0000 0.0000 -2.1000 102 137 173
1.0000 0.0000 -1.9000 102 137 173
1.0000 0.0000 -1.7000 102 137 173
1.0000 0.0000 -1.5000 102 137 173
1.0000 0.0000 -1.3000 102 137 173
1.0000 0.0000 -1.1000 102 137 173
1.0000 0.0000 -0.9000 102 137 173
1.0000 0.0000 -0.7000 102 137 173
1.0000 0.0000 -0.5000 102 137 173
1.0000 0.0000 -0.3000 102 137 173
1.0000 0.0000 -0.1000 102 137 173
1.0000 0.0000 0.1000 102 137 173
1.0000 0.0000 0.3000 102 137 173
1.0000 0.0000 0.5000 102 137 173
1.0000 0.0000 0.7000 102 137 173
1.0000 0.0000 0.9000 102 137 173
1.0000 0.0000 1.1000 102 137 173
1.0000 0.0000 1.3000 102 137 173
1.0000 0.0000 1.5000 102 137 173
1.0000 0.0000 1.7000 102 137 173
1.0000 0.0000 1.9000 102 137 173
1.0000 0.0000 2.1000 102 137 173
1.0000 0.0000 2.3000 102 137 173
1.0000 0.0000 2.5000 102 137 173
1.2000 0.0000 -2.5000 102 137 173
1.2000 0.0000 -2.3000 102 137 173
1.2000 0.0000 -2.1000 102 137 173
1.2000 0.0000 -1.9000 102 137 173
1.2000 0.0000 -1.7000 102 137 173
1.2000 0.0000 -1.5000 102 137 173
1.2000 0.0000 -1.3000 102 137 173
1.2000 0.0000 -1.1000 102 137 173
1.2000 0.0000 -0.9000 102 137 173
1.2000 0.0000 -0.7000 102 137 173
1.2000 0.0000 -0.5000 102 137 173
1.2000 0.0000 -0.3000 102 137 173
1.2000 0.0000 -0.1000 102 137 173
1.2000 0.0000 0.1000 102 137 173
1.2000 0.0000 0.3000 102 137 173
1.2000 0.0000 0.5000 102 137 173
1.2000 0.0000 0.7000 102 137 173
1.2000 0.0000 0.9000 102 137 173
1.2000 0.0000 1.1000 102 137 173
1.2000 0.0000 1.3000 102 137 173
1.2000 0.0000 1.5000 102 137 173
1.2000 0.0000 1.7000 102 137 173
1.2000 0.0000 1.9000 102 137 173
1.2000 0.0000 2.1000 102 137 173
1.2000 0.0000 2.3000 102 137 173
1.2000 0.0000 2.5000 102 137 173
1.4000 0.0000 -2.5000 102 137 173
1.4000 0.0000 -2.3000 102 137 173
1.4000 0.0000 -2.1000 102 137 173
1.4000 0.0000 -1.9000 102 137 173
1.4000 0.0000 -1.7000 102 137 173
1.4000 0.0000 -1.5000 102 137 173
1.4000 0.0000 -1.3000 102 137 173
1.4000 0.0000 -1.1000 102 137 173
1.4000 0.0000 -0.9000 102 137 173
1.4000 0.0000 -0.7000 102 137 173
1.4000 0.0000 -0.5000 102 137 173
1.4000 0.0000 -0.3000 102 137 173
1.4000 0.0000 -0.1000 102 137 173
1.4000 0.0000 0.1000 102 137 173
1.4000 0.0000 0.3000 102 137 173
1.4000 0.0000 0.5000 102 137 173
1.4000 0.0000 0.7000 102 137 173
1.4000 0.0000 0.9000 102 137 173
1.4000 0.0000 1.1000 102 137 173
1.4000 0.0000 1.3000 102 137 173
1.4000 0.0000 1.5000 102 137 173
1.4000 0.0000 1.7000 102 137 173
1.4000 0.0000 1.9000 102 137 173
1.4000 0.0000 2.1000 102 137 173
1.4000 0.0000 2.3000 102 137 173
1.4000 0.0000 2.5000 102 137 173
1.6000 0.0000 -2.5000 102 137 173
1.6000 0.0000 -2.3000 102 137 173
1.6000 0.0000 -2.1000 102 137 173
1.6000 0.0000 -1.9000 102 137 173
1.6000 0.0000 -1.7000 102 137 173
1.6000 0.0000 -1.5000 102 137 173
1.6000 0.0000 -1.3000 102 137 173
1.6000 0.0000 -1.1000 102 137 173
1.6000 0.0000 -0.9000 102 137 173
1.6000 0.0000 -0.7000 102 137 173
1.6000 0.0000 -0.5000 102 137 173
1.6000 0.0000 -0.3000 102 137 173
1.6000 0.0000 -0.1000 102 137 173
1.6000 0.0000 0.1000 102 137 173
1.6000 0.0000 0.3000 102 137 173
1.6000 0.0000 0.5000 102 137 173
1.6000 0.0000 0.7000 102 137 173
1.6000 0.0000 0.9000 102 137 173
1.6000 0.0000 1.1000 102 137 173
1.6000 0.0000 1.3000 102 137 173
1.6000 0.0000 1.5000 102 137 173
1.6000 0.0000 1.7000 102 137 173
1.6000 0.0000 1.9000 102 137 173
1.6000 0.0000 2.1000 102 137 173
1.6000 0.0000 2.3000 102 137 173
1.6000 0.0000 2.5000 102 137 173
1.8000 0.0000 -2.5000 102 137 173
1.8000 0.0000 -2.3000 102 137 173
1.8000 0.0000 -2.1000 102 137 173
1.8000 0.0000 -1.9000 102 137 173
1.8000 0.0000 -1.7000 102 137 173
1.8000 0.0000 -1.5000 102 137 173
1.8000 0.0000 -1.3000 102 137 173
1.8000 0.0000 -1.1000 102 137 173
1.8000 0.0000 -0.9000 102 137 173
1.8000 0.0000 -0.7000 102 137 173
1.8000 0.0000 -0.5000 102 137 173
1.8000 0.0000 -0.3000 102 137 173
1.8000 0.0000 -0.1000 102 137 173
1.8000 0.0000 0.1000 102 137 173
1.8000 0.0000 0.3000 102 137 173
1.8000 0.0000 0.5000 102 137 173
1.8000 0.0000 0.7000 102 137 173
1.8000 0.0000 0.9000 102 137 173
1.8000 0.0000 1.1000 102 137 173
1.8000 0.0000 1.3000 102 137 173
1.8000 0.0000 1.5000 102 137 173
1.8000 0.0000 1.7000 102 137 173
1.8000 0.0000 1.9000 102 137 173
1.8000 0.0000 2.1000 102 137 173
1.8000 0.0000 2.3000 102 137 173
1.8000 0.0000 2.5000 102 137 173
2.0000 0.0000 -2.5000 102 137 173
2.0000 0.0000 -2.3000 102 137 173
2.0000 0.0000 -2.1000 102 137 173
2.0000 0.0000 -1.9000 102 137 173
2.0000 0.0000 -1.7000 102 137 173
2.0000 0.0000 -1.5000 102 137 173
2.0000 0.0000 -1.3000 102 137 173
2.0000 0.0000 -1.1000 102 137 173
2.0000 0.0000 -0.9000 102 137 173
2.0000 0.0000 -0.7000 102 137 173
2.0000 0.0000 -0.5000 102 137 173
2.0000 0.0000 -0.3000 102 137 173
2.0000 0.0000 -0.1000 102 137 173
2.0000 0.0000 0.1000 102 137 173
2.0000 0.0000 0.3000 102 137 173
2.0000 0.0000 0.5000 102 137 173
2.0000 0.0000 0.7000 102 137 173
2.0000 0.0000 0.9000 102 137 173
2.0000 0.0000 1.1000 102 137 173
2.0000 0.0000 1.3000 102 137 173
2.0000 0.0000 1.5000 102 137 173
2.0000 0.0000 1.7000 102 137 173
2.0000 0.0000 1.9000 102 137 173
2.0000 0.0000 2.1000 102 137 173
2.0000 0.0000 2.3000 102 137 173
2.0000 0.0000 2.5000 102 137 173
2.2000 0.0000 -2.5000 102 137 173
2.2000 0.0000 -2.3000 102 137 173
2.2000 0.0000 -2.1000 102 137 173
2.2000 0.0000 -1.9000 102 137 173
2.2000 0.0000 -1.7000 102 137 173
2.2000 0.0000 -1.5000 102 137 173
2.2000 0.0000 -1.3000 102 137 173
2.2000 0.0000 -1.1000 102 137 173
2.2000 0.0000 -0.9000 102 137 173
2.2000 0.0000 -0.7000 102 137 173
2.2000 0.0000 -0.5000 102 137 173
2.2000 0.0000 -0.3000 102 137 173
2.2000 0.0000 -0.1000 102 137 173
2.2000 0.0000 0.1000 102 137 173
2.2000 0.0000 0.3000 102 137 173
2.2000 0.0000 0.5000 102 137 173
2.2000 0.0000 0.7000 102 137 173
2.2000 0.0000 0.9000 102 137 173
2.2000 0.0000 1.1000 102 137 173
2.2000 0.0000 1.3000 102 137 173
2.2000 0.0000 1.5000 102 137 173
2.2000 0.0000 1.7000 102 137 173
2.2000 0.0000 1.9000 102 137 173
2.2000 0.0000 2.1000 102 137 173
2.2000 0.0000 2.3000 102 137 173
2.2000 0.0000 2.5000 102 137 173
2.4000 0.0000 -2.5000 102 137 173
2.4000 0.0000 -2.3000 102 137 173
2.4000 0.0000 -2.1000 102 137 173
2.4000 0.0000 -1.9000 102 137 173
2.4000 0.0000 -1.7000 102 137 173
2.4000 0.0000 -1.5000 102 137 173
2.4000 0.0000 -1.3000 102 137 173
2.4000 0.0000 -1.1000 102 137 173
2.4000 0.0000 -0.9000 102 137 173
2.4000 0.0000 -0.7000 102 137 173
2.4000 0.0000 -0.5000 102 137 173
2.4000 0.0000 -0.3000 102 137 173
2.4000 0.0000 -0.1000 102 137 173
2.4000 0.0000 0.1000 102 137 173
2.4000 0.0000 0.3000 102 137 173
2.4000 0.0000 0.5000 102 137 173
2.4000 0.0000 0.7000 102 137 173
2.4000 0.0000 0.9000 102 137 173
2.4000 0.0000 1.1000 102 137 173
2.4000 0.0000 1.3000 102 137 173
2.4000 0.0000 1.5000 102 137 173
2.4000 0.0000 1.7000 102 137 173
2.4000 0.0000 1.9000 102 137 173
2.4000 0.0000 2.1000 102 137 173
2.4000 0.0000 2.3000 102 137 173
2.4000 0.0000 2.5000 102 137 173
2.6000 0.0000 -2.5000 102 137 173
2.6000 0.0000 -2.3000 102 137 173
2.6000 0.0000 -2.1000 102 137 173
2.6000 0.0000 -1.9000 102 137 173
2.6000 0.0000 -1.7000 102 137 173
2.6000 0.0000 -1.5000 102 137 173
2.6000 0.0000 -1.3000 102 137 173
2.6000 0.0000 -1.1000 102 137 173
2.6000 0.0000 -0.9000 102 137 173
2.6000 0.0000 -0.7000 102 137 173
2.6000 0.0000 -0.5000 102 137 173
2.6000 0.0000 -0.3000 102 137 173
2.6000 0.0000 -0.1000 102 137 173
2.6000 0.0000 0.1000 102 137 173
2.6000 0.0000 0.3000 102 137 173
2.6000 0.0000 0.5000 102 137 173
2.6000 0.0000 0.7000 102 137 173
2.6000 0.0000 0.9000 102 137 173
2.6000 0.0000 1.1000 102 137 173
2.6000 0.0000 1.3000 102 137 173
2.6000 0.0000 1.5000 102 137 173
2.6000 0.0000 1.7000 102 137 173
2.6000 0.0000 1.9000 102 137 173
2.6000 0.0000 2.1000 102 137 173
2.6000 0.0000 2.3000 102 137 173
2.6000 0.0000 2.5000 102 137 173
2.8000 0.0000 -2.5000 102 137 173
2.8000 0.0000 -2.3000 102 137 173
2.8000 0.0000 -2.1000 102 137 173
2.8000 0.0000 -1.9000 102 137 173
2.8000 0.0000 -1.7000 102 137 173
2.8000 0.0000 -1.5000 102 137 173
2.8000 0.0000 -1.3000 102 137 173
2.8000 0.0000 -1.1000 102 137 173
2.8000 0.0000 -0.9000 102 137 173
2.8000 0.0000 -0.7000 102 137 173
2.8000 0.0000 -0.5000 102 137 173
2.8000 0.0000 -0.3000 102 137 173
2.8000 0.0000 -0.1000 102 137 173
2.8000 0.0000 0.1000 102 137 173
2.8000 0.0000 0.3000 102 137 173
2.8000 0.0000 0.5000 102 137 173
2.8000 0.0000 0.7000 102 137 173
2.8000 0.0000 0.9000 102 137 173
2.8000 0.0000 1.1000 102 137 173
2.8000 0.0000 1.3000 102 137 173
2.8000 0.0000 1.5000 102 137 173
2.8000 0.0000 1.7000 102 137 173
2.8000 0.0000 1.9000 102 137 173
2.8000 0.0000 2.1000 102 137 173
2.8000 0.0000 2.3000 102 137 173
2.8000 0.0000 2.5000 102 137 173
3.0000 0.0000 -2.5000 102 137 173
3.0000 0.0000 -2.3000 102 137 173
3.0000 0.0000 -2.1000 102 137 173
3.0000 0.0000 -1.9000 102 137 173
3.0000 0.0000 -1.7000 102 137 173
3.0000 0.0000 -1.5000 102 137 173
3.0000 0.0000 -1.3000 102 137 173
3.0000 0.0000 -1.1000 102 137 173
3.0000 0.0000 -0.9000 102 137 173
3.0000 0.0000 -0.7000 102 137 173
3.0000 0.0000 -0.5000 102 137 173
3.0000 0.0000 -0.3000 102 137 173
3.0000 0.0000 -0.1000 102 137 173
3.0000 0.0000 0.1000 102 137 173
3.0000 0.0000 0.3000 102 137 173
3.0000 0.0000 0.5000 102 137 173
3.0000 0.0000 0.7000 102 137 173
3.0000 0.0000 0.9000 102 137 173
3.0000 0.0000 1.1000 102 137 173
3.0000 0.0000 1.3000 102 137 173
3.0000 0.0000 1.5000 102 137 173
3.0000 0.0000 1.7000 102 137 173
3.0000 0.0000 1.9000 102 137 173
3.0000 0.0000 2.1000 102 137 173
3.0000 0.0000 2.3000 102 137 173
3.0000 0.0000 2.5000 102 137 173
3.2000 0.0000 -2.5000 102 137 173
3.2000 0.0000 -2.3000 102 137 173
3.2000 0.0000 -2.1000 102 137 173
3.2000 0.0000 -1.9000 102 137 173
3.2000 0.0000 -1.7000 102 137 173
3.2000 0.0000 -1.5000 102 137 173
3.2000 0.0000 -1.3000 102 137 173
3.2000 0.0000 -1.1000 102 137 173
3.2000 0.0000 -0.9000 102 137 173
3.2000 0.0000 -0.7000 102 137 173
3.2000 0.0000 -0.5000 102 137 173
3.2000 0.0000 -0.3000 102 137 173
3.2000 0.0000 -0.1000 102 137 173
3.2000 0.0000 0.1000 102 137 173
3.2000 0.0000 0.3000 102 137 173
3.2000 0.0000 0.5000 102 137 173
3.2000 0.0000 0.7000 102 137 173
3.2000 0.0000 0.9000 102 137 173
3.2000 0.0000 1.1000 102 137 173
3.2000 0.0000 1.3000 102 137 173
3.2000 0.0000 1.5000 102 137 173
3.2000 0.0000 1.7000 102 137 173
3.2000 0.0000 1.9000 102 137 173
3.2000 0.0000 2.1000 102 137 173
3.2000 0.0000 2.3000 102 137 173
3.2000 0.0000 2.5000 102 137 173
3.4000 0.0000 -2.5000 102 137 173
3.4000 0.0000 -2.3000 102 137 173
3.4000 0.0000 -2.1000 102 137 173
3.4000 0.0000 -1.9000 102 137 173
3.4000 0.0000 -1.7000 102 137 173
3.4000 0.0000 -1.5000 102 137 173
3.4000 0.0000 -1.3000 102 137 173
3.4000 0.0000 -1.1000 102 137 173
3.4000 0.0000 -0.9000 102 137 173
3.4000 0.0000 -0.7000 102 137 173
3.4000 0.0000 -0.5000 102 137 173
3.4000 0.0000 -0.3000 102 137 173
3.4000 0.0000 -0.1000 102 137 173
3.4000 0.0000 0.1000 102 137 173
3.4000 0.0000 0.3000 102 137 173
3.4000 0.0000 0.5000 102 137 173
3.4000 0.0000 0.7000 102 137 173
3.4000 0.0000 0.9000 102 137 173
3.4000 0.0000 1.1000 102 137 173
3.4000 0.0000 1.3000 102 137 173
3.4000 0.0000 1.5000 102 137 173
3.4000 0.0000 1.7000 102 137 173
3.4000 0.0000 1.9000 102 137 173
3.4000 0.0000 2.1000 102 137 173
3.4000 0.0000 2.3000 102 137 173
3.4000 0.0000 2.5000 102 137 173
3.6000 0.0000 -2.5000 102 137 173
3.6000 0.0000 -2.3000 102 137 173
3.6000 0.0000 -2.1000 102 137 173
3.6000 0.0000 -1.9000 102 137 173
3.6000 0.0000 -1.7000 102 137 173
3.6000 0.0000 -1.5000 102 137 173
3.6000 0.0000 -1.3000 102 137 173
3.6000 0.0000 -1.1000 102 137 173
3.6000 0.0000 -0.9000 102 137 173
3.6000 0.0000 -0.7000 102 137 173
3.6000 0.0000 -0.5000 102 137 173
3.6000 0.0000 -0.3000 102 137 173
3.6000 0.0000 -0.1000 102 137 173
3.6000 0.0000 0.1000 102 137 173
3.6000 0.0000 0.3000 102 137 173
3.6000 0.0000 0.5000 102 137 173
3.6000 0.0000 0.7000 102 137 173
3.6000 0.0000 0.9000 102 137 173
3.6000 0.0000 1.1000 102 137 173
3.6000 0.0000 1.3000 102 137 173
3.6000 0.0000 1.5000 102 137 173
3.6000 0.0000 1.7000 102 137 173
3.6000 0.0000 1.9000 102 137 173
3.6000 0.0000 2.1000 102 137 173
3.6000 0.0000 2.3000 102 137 173
3.6000 0.0000 2.5000 102 137 173
3.8000 0.0000 -2.5000 102 137 173
3.8000 0.0000 -2.3000 102 137 173
3.8000 0.0000 -2.1000 102 137 173
3.8000 0.0000 -1.9000 102 137 173
3.8000 0.0000 -1.7000 102 137 173
3.8000 0.0000 -1.5000 102 137 173
3.8000 0.0000 -1.3000 102 137 173
3.8000 0.0000 -1.1000 102 137 173
3.8000 0.0000 -0.9000 102 137 173
3.8000 0.0000 -0.7000 102 137 173
3.8000 0.0000 -0.5000 102 137 173
3.8000 0.0000 -0.3000 102 137 173
3.8000 0.0000 -0.1000 102 137 173
3.8000 0.0000 0.1000 102 137 173
3.8000 0.0000 0.3000 102 137 173
3.8000 0.0000 0.5000 102 137 173
3.8000 0.0000 0.7000 102 137 173
3.8000 0.0000 0.9000 102 137 173
3.8000 0.0000 1.1000 102 137 173
3.8000 0.0000 1.3000 102 137 173
3.8000 0.0000 1.5000 102 137 173
3.8000 0.0000 1.7000 102 137 173
3.8000 0.0000 1.9000 102 137 173
3.8000 0.0000 2.1000 102 137 173
3.8000 0.0000 2.3000 102 137 173
3.8000 0.0000 2.5000 102 137 173
4.0000 0.0000 -2.5000 102 137 173
4.0000 0.0000 -2.3000 102 137 173
4.0000 0.0000 -2.1000 102 137 173
4.0000 0.0000 -1.9000 102 137 173
4.0000 0.0000 -1.7000 102 137 173
4.0000 0.0000 -1.5000 102 137 173
4.0000 0.0000 -1.3000 102 137 173
4.0000 0.0000 -1.1000 102 137 173
4.0000 0.0000 -0.9000 102 137 173
4.0000 0.0000 -0.7000 102 137 173
4.0000 0.0000 -0.5000 102 137 173
4.0000 0.0000 -0.3000 102 137 173
4.0000 0.0000 -0.1000 102 137 173
4.0000 0.0000 0.1000 102 137 173
4.0000 0.0000 0.3000 102 137 173
4.0000 0.0000 0.5000 102 137 173
4.0000 0.0000 0.7000 102 137 173
4.0000 0.0000 0.9000 102 137 173
4.0000 0.0000 1.1000 102 137 173
4.0000 0.0000 1.3000 102 137 173
4.0000 0.0000 1.5000 102 137 173
4.0000 0.0000 1.7000 102 137 173
4.0000 0.0000 1.9000 102 137 173
4.0000 0.0000 2.1000 102 137 173
4.0000 0.0000 2.3000 102 137 173
4.0000 0.0000 2.5000 102 137 173
-4.0000 0.2000 -2.5000 162 190 216
-4.0000 0.2000 2.5000 162 190 216
-3.8000 0.2000 -2.5000 162 190 216
-3.8000 0.2000 2.5000 162 190 216
-3.6000 0.2000 -2.5000 162 190 216
-3.6000 0.2000 2.5000 162 190 216
-3.4000 0.2000 -2.5000 162 190 216
-3.4000 0.2000 2.5000 162 190 216
-3.2000 0.2000 -2.5000 162 190 216
-3.2000 0.2000 2.5000 162 190 216
-3.0000 0.2000 -2.5000 162 190 216
-3.0000 0.2000 2.5000 162 190 216
-2.8000 0.2000 -2.5000 162 190 216
-2.8000 0.2000 2.5000 162 190 216
-2.6000 0.2000 -2.5000 162 190 216
-2.6000 0.2000 2.5000 162 190 216
-2.4000 0.2000 -2.5000 162 190 216
-2.4000 0.2000 2.5000 162 190 216
-2.2000 0.2000 -2.5000 162 190 216
-2.2000 0.2000 2.5000 162 190 216
-2.0000 0.2000 -2.5000 162 190 216
-2.0000 0.2000 2.5000 162 190 216
-1.8000 0.2000 -2.5000 162 190 216
-1.8000 0.2000 2.5000 162 190 216
-1.6000 0.2000 -2.5000 162 190 216
-1.6000 0.2000 2.5000 162 190 216
-1.4000 0.2000 -2.5000 162 190 216
-1.4000 0.2000 2.5000 162 190 216
-1.2000 0.2000 -2.5000 162 190 216
-1.2000 0.2000 2.5000 162 190 216
-1.0000 0.2000 -2.5000 162 190 216
-1.0000 0.2000 2.5000 162 190 216
-0.8000 0.2000 -2.5000 162 190 216
-0.8000 0.2000 2.5000 162 190 216
-0.6000 0.2000 -2.5000 162 190 216
-0.4000 0.2000 -2.5000 162 190 216
-0.2000 0.2000 -2.5000 162 190 216
0.0000 0.2000 -2.5000 162 190 216
0.2000 0.2000 -2.5000 162 190 216
0.4000 0.2000 -2.5000 162 190 216
0.6000 0.2000 -2.5000 162 190 216
0.8000 0.2000 -2.5000 162 190 216
0.8000 0.2000 2.5000 162 190 216
1.0000 0.2000 -2.5000 162 190 216
1.0000 0.2000 2.5000 162 190 216
1.2000 0.2000 -2.5000 162 190 216
1.2000 0.2000 2.5000 162 190 216
1.4000 0.2000 -2.5000 162 190 216
1.4000 0.2000 2.5000 162 190 216
1.6000 0.2000 -2.5000 162 190 216
1.6000 0.2000 2.5000 162 190 216
1.8000 0.2000 -2.5000 162 190 216
1.8000 0.2000 2.5000 162 190 216
2.0000 0.2000 -2.5000 162 190 216
2.0000 0.2000 2.5000 162 190 216
2.2000 0.2000 -2.5000 162 190 216
2.2000 0.2000 2.5000 162 190 216
2.4000 0.2000 -2.5000 162 190 216
2.4000 0.2000 2.5000 162 190 216
2.6000 0.2000 -2.5000 162 190 216
2.6000 0.2000 2.5000 162 190 216
2.8000 0.2000 -2.5000 162 190 216
2.8000 0.2000 2.5000 162 190 216
3.0000 0.2000 -2.5000 162 190 216
3.0000 0.2000 2.5000 162 190 216
3.2000 0.2000 -2.5000 162 190 216
3.2000 0.2000 2.5000 162 190 216
3.4000 0.2000 -2.5000 162 190 216
3.4000 0.2000 2.5000 162 190 216
3.6000 0.2000 -2.5000 162 190 216
3.6000 0.2000 2.5000 162 190 216
3.8000 0.2000 -2.5000 162 190 216
3.8000 0.2000 2.5000 162 190 216
4.0000 0.2000 -2.5000 162 190 216
4.0000 0.2000 2.5000 162 190 216
-4.0000 0.2000 -2.3000 162 190 216
4.0000 0.2000 -2.3000 162 190 216
-4.0000 0.2000 -2.1000 162 190 216
4.0000 0.2000 -2.1000 162 190 216
-4.0000 0.2000 -1.9000 162 190 216
4.0000 0.2000 -1.9000 162 190 216
-4.0000 0.2000 -1.7000 162 190 216
4.0000 0.2000 -1.7000 162 190 216
-4.0000 0.2000 -1.5000 162 190 216
4.0000 0.2000 -1.5000 162 190 216
-4.0000 0.2000 -1.3000 162 190 216
4.0000 0.2000 -1.3000 162 190 216
-4.0000 0.2000 -1.1000 162 190 216
4.0000 0.2000 -1.1000 162 190 216
-4.0000 0.2000 -0.9000 162 190 216
4.0000 0.2000 -0.9000 162 190 216
-4.0000 0.2000 -0.7000 162 190 216
4.0000 0.2000 -0.7000 162 190 216
-4.0000 0.2000 -0.5000 162 190 216
4.0000 0.2000 -0.5000 162 190 216
-4.0000 0.2000 -0.3000 162 190 216
4.0000 0.2000 -0.3000 162 190 216
-4.0000 0.2000 -0.1000 162 190 216
4.0000 0.2000 -0.1000 162 190 216
-4.0000 0.2000 0.1000 162 190 216
4.0000 0.2000 0.1000 162 190 216
-4.0000 0.2000 0.3000 162 190 216
4.0000 0.2000 0.3000 162 190 216
-4.0000 0.2000 0.5000 162 190 216
4.0000 0.2000 0.5000 162 190 216
-4.0000 0.2000 0.7000 162 190 216
4.0000 0.2000 0.7000 162 190 216
-4.0000 0.2000 0.9000 162 190 216
4.0000 0.2000 0.9000 162 190 216
-4.0000 0.2000 1.1000 162 190 216
4.0000 0.2000 1.1000 162 190 216
-4.0000 0.2000 1.3000 162 190 216
4.0000 0.2000 1.3000 162 190 216
-4.0000 0.2000 1.5000 162 190 216
4.0000 0.2000 1.5000 162 190 216
-4.0000 0.2000 1.7000 162 190 216
4.0000 0.2000 1.7000 162 190 216
-4.0000 0.2000 1.9000 162 190 216
4.0000 0.2000 1.9000 162 190 216
-4.0000 0.2000 2.1000 162 190 216
4.0000 0.2000 2.1000 162 190 216
-4.0000 0.2000 2.3000 162 190 216
4.0000 0.2000 2.3000 162 190 216
-4.0000 0.4000 -2.5000 162 190 216
-4.0000 0.4000 2.5000 162 190 216
-3.8000 0.4000 -2.5000 162 190 216
-3.8000 0.4000 2.5000 162 190 216
-3.6000 0.4000 -2.5000 162 190 216
-3.6000 0.4000 2.5000 162 190 216
-3.4000 0.4000 -2.5000 162 190 216
-3.4000 0.4000 2.5000 162 190 216
-3.2000 0.4000 -2.5000 162 190 216
-3.2000 0.4000 2.5000 162 190 216
-3.0000 0.4000 -2.5000 162 190 216
-3.0000 0.4000 2.5000 162 190 216
-2.8000 0.4000 -2.5000 162 190 216
-2.8000 0.4000 2.5000 162 190 216
-2.6000 0.4000 -2.5000 162 190 216
-2.6000 0.4000 2.5000 162 190 216
-2.4000 0.4000 -2.5000 162 190 216
-2.4000 0.4000 2.5000 162 190 216
-2.2000 0.4000 -2.5000 162 190 216
-2.2000 0.4000 2.5000 162 190 216
-2.0000 0.4000 -2.5000 162 190 216
-2.0000 0.4000 2.5000 162 190 216
-1.8000 0.4000 -2.5000 162 190 216
-1.8000 0.4000 2.5000 162 190 216
-1.6000 0.4000 -2.5000 162 190 216
-1.6000 0.4000 2.5000 162 190 216
-1.4000 0.4000 -2.5000 162 190 216
-1.4000 0.4000 2.5000 162 190 216
-1.2000 0.4000 -2.5000 162 190 216
-1.2000 0.4000 2.5000 162 190 216
-1.0000 0.4000 -2.5000 162 190 216
-1.0000 0.4000 2.5000 162 190 216
-0.8000 0.4000 -2.5000 162 190 216
-0.8000 0.4000 2.5000 162 190 216
-0.6000 0.4000 -2.5000 162 190 216
-0.4000 0.4000 -2.5000 162 190 216
-0.2000 0.4000 -2.5000 162 190 216
0.0000 0.4000 -2.5000 162 190 216
0.2000 0.4000 -2.5000 162 190 216
0.4000 0.4000 -2.5000 162 190 216
0.6000 0.4000 -2.5000 162 190 216
0.8000 0.4000 -2.5000 162 190 216
0.8000 0.4000 2.5000 162 190 216
1.0000 0.4000 -2.5000 162 190 216
1.0000 0.4000 2.5000 162 190 216
1.2000 0.4000 -2.5000 162 190 216
1.2000 0.4000 2.5000 162 190 216
1.4000 0.4000 -2.5000 162 190 216
1.4000 0.4000 2.5000 162 190 216
1.6000 0.4000 -2.5000 162 190 216
1.6000 0.4000 2.5000 162 190 216
1.8000 0.4000 -2.5000 162 190 216
1.8000 0.4000 2.5000 162 190 216
2.0000 0.4000 -2.5000 162 190 216
2.0000 0.4000 2.5000 162 190 216
2.2000 0.4000 -2.5000 162 190 216
2.2000 0.4000 2.5000 162 190 216
2.4000 0.4000 -2.5000 162 190 216
2.4000 0.4000 2.5000 162 190 216
2.6000 0.4000 -2.5000 162 190 216
2.6000 0.4000 2.5000 162 190 216
2.8000 0.4000 -2.5000 162 190 216
2.8000 0.4000 2.5000 162 190 216
3.0000 0.4000 -2.5000 162 190 216
3.0000 0.4000 2.5000 162 190 216
3.2000 0.4000 -2.5000 162 190 216
3.2000 0.4000 2.5000 162 190 216
3.4000 0.4000 -2.5000 162 190 216
3.4000 0.4000 2.5000 162 190 216
3.6000 0.4000 -2.5000 162 190 216
3.6000 0.4000 2.5000 162 190 216
3.8000 0.4000 -2.5000 162 190 216
3.8000 0.4000 2.5000 162 190 216
4.0000 0.4000 -2.5000 162 190 216
4.0000 0.4000 2.5000 162 190 216
-4.0000 0.4000 -2.3000 162 190 216
4.0000 0.4000 -2.3000 162 190 216
-4.0000 0.4000 -2.1000 162 190 216
4.0000 0.4000 -2.1000 162 190 216
-4.0000 0.4000 -1.9000 162 190 216
4.0000 0.4000 -1.9000 162 190 216
-4.0000 0.4000 -1.7000 162 190 216
4.0000 0.4000 -1.7000 162 190 216
-4.0000 0.4000 -1.5000 162 190 216
4.0000 0.4000 -1.5000 162 190 216
-4.0000 0.4000 -1.3000 162 190 216
4.0000 0.4000 -1.3000 162 190 216
-4.0000 0.4000 -1.1000 162 190 216
4.0000 0.4000 -1.1000 162 190 216
-4.0000 0.4000 -0.9000 162 190 216
4.0000 0.4000 -0.9000 162 190 216
-4.0000 0.4000 -0.7000 162 190 216
4.0000 0.4000 -0.7000 162 190 216
-4.0000 0.4000 -0.5000 162 190 216
4.0000 0.4000 -0.5000 162 190 216
-4.0000 0.4000 -0.3000 162 190 216
4.0000 0.4000 -0.3000 162 190 216
-4.0000 0.4000 -0.1000 162 190 216
4.0000 0.4000 -0.1000 162 190 216
-4.0000 0.4000 0.1000 162 190 216
4.0000 0.4000 0.1000 162 190 216
-4.0000 0.4000 0.3000 162 190 216
4.0000 0.4000 0.3000 162 190 216
-4.0000 0.4000 0.5000 162 190 216
4.0000 0.4000 0.5000 162 190 216
-4.0000 0.4000 0.7000 162 190 216
4.0000 0.4000 0.7000 162 190 216
-4.0000 0.4000 0.9000 162 190 216
4.0000 0.4000 0.9000 162 190 216
-4.0000 0.4000 1.1000 162 190 216
4.0000 0.4000 1.1000 162 190 216
-4.0000 0.4000 1.3000 162 190 216
4.0000 0.4000 1.3000 162 190 216
-4.0000 0.4000 1.5000 162 190 216
4.0000 0.4000 1.5000 162 190 216
-4.0000 0.4000 1.7000 162 190 216
4.0000 0.4000 1.7000 162 190 216
-4.0000 0.4000 1.9000 162 190 216
4.0000 0.4000 1.9000 162 190 216
-4.0000 0.4000 2.1000 162 190 216
4.0000 0.4000 2.1000 162 190 216
-4.0000 0.4000 2.3000 162 190 216
4.0000 0.4000 2.3000 162 190 216
-4.0000 0.6000 -2.5000 162 190 216
-4.0000 0.6000 2.5000 162 190 216
-3.8000 0.6000 -2.5000 162 190 216
-3.8000 0.6000 2.5000 162 190 216
-3.6000 0.6000 -2.5000 162 190 216
-3.6000 0.6000 2.5000 162 190 216
-3.4000 0.6000 -2.5000 162 190 216
-3.4000 0.6000 2.5000 162 190 216
-3.2000 0.6000 -2.5000 162 190 216
-3.2000 0.6000 2.5000 162 190 216
-3.0000 0.6000 -2.5000 162 190 216
-3.0000 0.6000 2.5000 162 190 216
-2.8000 0.6000 -2.5000 162 190 216
-2.8000 0.6000 2.5000 162 190 216
-2.6000 0.6000 -2.5000 162 190 216
-2.6000 0.6000 2.5000 162 190 216
-2.4000 0.6000 -2.5000 162 190 216
-2.4000 0.6000 2.5000 162 190 216
-2.2000 0.6000 -2.5000 162 190 216
-2.2000 0.6000 2.5000 162 190 216
-2.0000 0.6000 -2.5000 162 190 216
-2.0000 0.6000 2.5000 162 190 216
-1.8000 0.6000 -2.5000 162 190 216
-1.8000 0.6000 2.5000 162 190 216
-1.6000 0.6000 -2.5000 162 190 216
-1.6000 0.6000 2.5000 162 190 216
-1.4000 0.6000 -2.5000 162 190 216
-1.4000 0.6000 2.5000 162 190 216
-1.2000 0.6000 -2.5000 162 190 216
-1.2000 0.6000 2.5000 162 190 216
-1.0000 0.6000 -2.5000 162 190 216
-1.0000 0.6000 2.5000 162 190 216
-0.8000 0.6000 -2.5000 162 190 216
-0.8000 0.6000 2.5000 162 190 216
-0.6000 0.6000 -2.5000 162 190 216
-0.4000 0.6000 -2.5000 162 190 216
-0.2000 0.6000 -2.5000 162 190 216
0.0000 0.6000 -2.5000 162 190 216
0.2000 0.6000 -2.5000 162 190 216
0.4000 0.6000 -2.5000 162 190 216
0.6000 0.6000 -2.5000 162 190 216
0.8000 0.6000 -2.5000 162 190 216
0.8000 0.6000 2.5000 162 190 216
1.0000 0.6000 -2.5000 162 190 216
1.0000 0.6000 2.5000 162 190 216
1.2000 0.6000 -2.5000 162 190 216
1.2000 0.6000 2.5000 162 190 216
1.4000 0.6000 -2.5000 162 190 216
1.4000 0.6000 2.5000 162 190 216
1.6000 0.6000 -2.5000 162 190 216
1.6000 0.6000 2.5000 162 190 216
1.8000 0.6000 -2.5000 162 190 216
1.8000 0.6000 2.5000 162 190 216
2.0000 0.6000 -2.5000 162 190 216
2.0000 0.6000 2.5000 162 190 216
2.2000 0.6000 -2.5000 162 190 216
2.2000 0.6000 2.5000 162 190 216
2.4000 0.6000 -2.5000 162 190 216
2.4000 0.6000 2.5000 162 190 216
2.6000 0.6000 -2.5000 162 190 216
2.6000 0.6000 2.5000 162 190 216
2.8000 0.6000 -2.5000 162 190 216
2.8000 0.6000 2.5000 162 190 216
3.0000 0.6000 -2.5000 162 190 216
3.0000 0.6000 2.5000 162 190 216
3.2000 0.6000 -2.5000 162 190 216
3.2000 0.6000 2.5000 162 190 216
3.4000 0.6000 -2.5000 162 190 216
3.4000 0.6000 2.5000 162 190 216
3.6000 0.6000 -2.5000 162 190 216
3.6000 0.6000 2.5000 162 190 216
3.8000 0.6000 -2.5000 162 190 216
3.8000 0.6000 2.5000 162 190 216
4.0000 0.6000 -2.5000 162 190 216
4.0000 0.6000 2.5000 162 190 216
-4.0000 0.6000 -2.3000 162 190 216
4.0000 0.6000 -2.3000 162 190 216
-4.0000 0.6000 -2.1000 162 190 216
4.0000 0.6000 -2.1000 162 190 216
-4.0000 0.6000 -1.9000 162 190 216
4.0000 0.6000 -1.9000 162 190 216
-4.0000 0.6000 -1.7000 162 190 216
4.0000 0.6000 -1.7000 162 190 216
-4.0000 0.6000 -1.5000 162 190 216
4.0000 0.6000 -1.5000 162 190 216
-4.0000 0.6000 -1.3000 162 190 216
4.0000 0.6000 -1.3000 162 190 216
-4.0000 0.6000 -1.1000 162 190 216
4.0000 0.6000 -1.1000 162 190 216
-4.0000 0.6000 -0.9000 162 190 216
4.0000 0.6000 -0.9000 162 190 216
-4.0000 0.6000 -0.7000 162 190 216
4.0000 0.6000 -0.7000 162 190 216
-4.0000 0.6000 -0.5000 162 190 216
4.0000 0.6000 -0.5000 162 190 216
-4.0000 0.6000 -0.3000 162 190 216
4.0000 0.6000 -0.3000 162 190 216
-4.0000 0.6000 -0.1000 162 190 216
4.0000 0.6000 -0.1000 162 190 216
-4.0000 0.6000 0.1000 162 190 216
4.0000 0.6000 0.1000 162 190 216
-4.0000 0.6000 0.3000 162 190 216
4.0000 0.6000 0.3000 162 190 216
-4.0000 0.6000 0.5000 162 190 216
4.0000 0.6000 0.5000 162 190 216
-4.0000 0.6000 0.7000 162 190 216
4.0000 0.6000 0.7000 162 190 216
-4.0000 0.6000 0.9000 162 190 216
4.0000 0.6000 0.9000 162 190 216
-4.0000 0.6000 1.1000 162 190 216
4.0000 0.6000 1.1000 162 190 216
-4.0000 0.6000 1.3000 162 190 216
4.0000 0.6000 1.3000 162 190 216
-4.0000 0.6000 1.5000 162 190 216
4.0000 0.6000 1.5000 162 190 216
-4.0000 0.6000 1.7000 162 190 216
4.0000 0.6000 1.7000 162 190 216
-4.0000 0.6000 1.9000 162 190 216
4.0000 0.6000 1.9000 162 190 216
-4.0000 0.6000 2.1000 162 190 216
4.0000 0.6000 2.1000 162 190 216
-4.0000 0.6000 2.3000 162 190 216
4.0000 0.6000 2.3000 162 190 216
-4.0000 0.8000 -2.5000 162 190 216
-4.0000 0.8000 2.5000 162 190 216
-3.8000 0.8000 -2.5000 162 190 216
-3.8000 0.8000 2.5000 162 190 216
-3.6000 0.8000 -2.5000 162 190 216
-3.6000 0.8000 2.5000 162 190 216
-3.4000 0.8000 -2.5000 162 190 216
-3.4000 0.8000 2.5000 162 190 216
-3.2000 0.8000 -2.5000 162 190 216
-3.2000 0.8000 2.5000 162 190 216
-3.0000 0.8000 -2.5000 162 190 216
-3.0000 0.8000 2.5000 162 190 216
-2.8000 0.8000 -2.5000 162 190 216
-2.8000 0.8000 2.5000 162 190 216
-2.6000 0.8000 -2.5000 162 190 216
-2.6000 0.8000 2.5000 162 190 216
-2.4000 0.8000 -2.5000 162 190 216
-2.4000 0.8000 2.5000 162 190 216
-2.2000 0.8000 -2.5000 162 190 216
-2.2000 0.8000 2.5000 162 190 216
-2.0000 0.8000 -2.5000 162 190 216
-2.0000 0.8000 2.5000 162 190 216
-1.8000 0.8000 -2.5000 162 190 216
-1.8000 0.8000 2.5000 162 190 216
-1.6000 0.8000 -2.5000 162 190 216
-1.6000 0.8000 2.5000 162 190 216
-1.4000 0.8000 -2.5000 162 190 216
-1.4000 0.8000 2.5000 162 190 216
-1.2000 0.8000 -2.5000 162 190 216
-1.2000 0.8000 2.5000 162 190 216
-1.0000 0.8000 -2.5000 162 190 216
-1.0000 0.8000 2.5000 162 190 216
-0.8000 0.8000 -2.5000 162 190 216
-0.8000 0.8000 2.5000 162 190 216
-0.6000 0.8000 -2.5000 162 190 216
-0.4000 0.8000 -2.5000 162 190 216
-0.2000 0.8000 -2.5000 162 190 216
0.0000 0.8000 -2.5000 162 190 216
0.2000 0.8000 -2.5000 162 190 216
0.4000 0.8000 -2.5000 162 190 216
0.6000 0.8000 -2.5000 162 190 216
0.8000 0.8000 -2.5000 162 190 216
0.8000 0.8000 2.5000 162 190 216
1.0000 0.8000 -2.5000 162 190 216
1.0000 0.8000 2.5000 162 190 216
1.2000 0.8000 -2.5000 162 190 216
1.2000 0.8000 2.5000 162 190 216
1.4000 0.8000 -2.5000 162 190 216
1.4000 0.8000 2.5000 162 190 216
1.6000 0.8000 -2.5000 162 190 216
1.6000 0.8000 2.5000 162 190 216
1.8000 0.8000 -2.5000 162 190 216
1.8000 0.8000 2.5000 162 190 216
2.0000 0.8000 -2.5000 162 190 216
2.0000 0.8000 2.5000 162 190 216
2.2000 0.8000 -2.5000 162 190 216
2.2000 0.8000 2.5000 162 190 216
2.4000 0.8000 -2.5000 162 190 216
2.4000 0.8000 2.5000 162 190 216
2.6000 0.8000 -2.5000 162 190 216
2.6000 0.8000 2.5000 162 190 216
2.8000 0.8000 -2.5000 162 190 216
2.8000 0.8000 2.5000 162 190 216
3.0000 0.8000 -2.5000 162 190 216
3.0000 0.8000 2.5000 162 190 216
3.2000 0.8000 -2.5000 162 190 216
3.2000 0.8000 2.5000 162 190 216
3.4000 0.8000 -2.5000 162 190 216
3.4000 0.8000 2.5000 162 190 216
3.6000 0.8000 -2.5000 162 190 216
3.6000 0.8000 2.5000 162 190 216
3.8000 0.8000 -2.5000 162 190 216
3.8000 0.8000 2.5000 162 190 216
4.0000 0.8000 -2.5000 162 190 216
4.0000 0.8000 2.5000 162 190 216
-4.0000 0.8000 -2.3000 162 190 216
4.0000 0.8000 -2.3000 162 190 216
-4.0000 0.8000 -2.1000 162 190 216
4.0000 0.8000 -2.1000 162 190 216
-4.0000 0.8000 -1.9000 162 190 216
4.0000 0.8000 -1.9000 162 190 216
-4.0000 0.8000 -1.7000 162 190 216
4.0000 0.8000 -1.7000 162 190 216
-4.0000 0.8000 -1.5000 162 190 216
4.0000 0.8000 -1.5000 162 190 216
-4.0000 0.8000 -1.3000 162 190 216
4.0000 0.8000 -1.3000 162 190 216
-4.0000 0.8000 -1.1000 162 190 216
4.0000 0.8000 -1.1000 162 190 216
-4.0000 0.8000 -0.9000 162 190 216
4.0000 0.8000 -0.9000 162 190 216
-4.0000 0.8000 -0.7000 162 190 216
4.0000 0.8000 -0.7000 162 190 216
-4.0000 0.8000 -0.5000 162 190 216
4.0000 0.8000 -0.5000 162 190 216
-4.0000 0.8000 -0.3000 162 190 216
4.0000 0.8000 -0.3000 162 190 216
-4.0000 0.8000 -0.1000 162 190 216
4.0000 0.8000 -0.1000 162 190 216
-4.0000 0.8000 0.1000 162 190 216
4.0000 0.8000 0.1000 162 190 216
-4.0000 0.8000 0.3000 162 190 216
4.0000 0.8000 0.3000 162 190 216
-4.0000 0.8000 0.5000 162 190 216
4.0000 0.8000 0.5000 162 190 216
-4.0000 0.8000 0.7000 162 190 216
4.0000 0.8000 0.7000 162 190 216
-4.0000 0.8000 0.9000 162 190 216
4.0000 0.8000 0.9000 162 190 216
-4.0000 0.8000 1.1000 162 190 216
4.0000 0.8000 1.1000 162 190 216
-4.0000 0.8000 1.3000 162 190 216
4.0000 0.8000 1.3000 162 190 216
-4.0000 0.8000 1.5000 162 190 216
4.0000 0.8000 1.5000 162 190 216
-4.0000 0.8000 1.7000 162 190 216
4.0000 0.8000 1.7000 162 190 216
-4.0000 0.8000 1.9000 162 190 216
4.0000 0.8000 1.9000 162 190 216
-4.0000 0.8000 2.1000 162 190 216
4.0000 0.8000 2.1000 162 190 216
-4.0000 0.8000 2.3000 162 190 216
4.0000 0.8000 2.3000 162 190 216
-4.0000 1.0000 -2.5000 162 190 216
-4.0000 1.0000 2.5000 162 190 216
-3.8000 1.0000 -2.5000 162 190 216
-3.8000 1.0000 2.5000 162 190 216
-3.6000 1.0000 -2.5000 162 190 216
-3.6000 1.0000 2.5000 162 190 216
-3.4000 1.0000 -2.5000 162 190 216
-3.4000 1.0000 2.5000 162 190 216
-3.2000 1.0000 -2.5000 162 190 216
-3.2000 1.0000 2.5000 162 190 216
-3.0000 1.0000 -2.5000 162 190 216
-3.0000 1.0000 2.5000 162 190 216
-2.8000 1.0000 -2.5000 162 190 216
-2.8000 1.0000 2.5000 162 190 216
-2.6000 1.0000 -2.5000 162 190 216
-2.6000 1.0000 2.5000 162 190 216
-2.4000 1.0000 -2.5000 162 190 216
-2.4000 1.0000 2.5000 162 190 216
-2.2000 1.0000 -2.5000 162 190 216
-2.2000 1.0000 2.5000 162 190 216
-2.0000 1.0000 -2.5000 162 190 216
-2.0000 1.0000 2.5000 162 190 216
-1.8000 1.0000 -2.5000 162 190 216
-1.8000 1.0000 2.5000 162 190 216
-1.6000 1.0000 -2.5000 162 190 216
-1.6000 1.0000 2.5000 162 190 216
-1.4000 1.0000 -2.5000 162 190 216
-1.4000 1.0000 2.5000 162 190 216
-1.2000 1.0000 -2.5000 162 190 216
-1.2000 1.0000 2.5000 162 190 216
-1.0000 1.0000 -2.5000 162 190 216
-1.0000 1.0000 2.5000 162 190 216
-0.8000 1.0000 -2.5000 162 190 216
-0.8000 1.0000 2.5000 162 190 216
-0.6000 1.0000 -2.5000 162 190 216
-0.4000 1.0000 -2.5000 162 190 216
-0.2000 1.0000 -2.5000 162 190 216
0.0000 1.0000 -2.5000 162 190 216
0.2000 1.0000 -2.5000 162 190 216
0.4000 1.0000 -2.5000 162 190 216
0.6000 1.0000 -2.5000 162 190 216
0.8000 1.0000 -2.5000 162 190 216
0.8000 1.0000 2.5000 162 190 216
1.0000 1.0000 -2.5000 162 190 216
1.0000 1.0000 2.5000 162 190 216
1.2000 1.0000 -2.5000 162 190 216
1.2000 1.0000 2.5000 162 190 216
1.4000 1.0000 -2.5000 162 190 216
1.4000 1.0000 2.5000 162 190 216
1.6000 1.0000 -2.5000 162 190 216
1.6000 1.0000 2.5000 162 190 216
1.8000 1.0000 -2.5000 162 190 216
1.8000 1.0000 2.5000 162 190 216
2.0000 1.0000 -2.5000 162 190 216
2.0000 1.0000 2.5000 162 190 216
2.2000 1.0000 -2.5000 162 190 216
2.2000 1.0000 2.5000 162 190 216
2.4000 1.0000 -2.5000 162 190 216
2.4000 1.0000 2.5000 162 190 216
2.6000 1.0000 -2.5000 162 190 216
2.6000 1.0000 2.5000 162 190 216
2.8000 1.0000 -2.5000 162 190 216
2.8000 1.0000 2.5000 162 190 216
3.0000 1.0000 -2.5000 162 190 216
3.0000 1.0000 2.5000 162 190 216
3.2000 1.0000 -2.5000 162 190 216
3.2000 1.0000 2.5000 162 190 216
3.4000 1.0000 -2.5000 162 190 216
3.4000 1.0000 2.5000 162 190 216
3.6000 1.0000 -2.5000 162 190 216
3.6000 1.0000 2.5000 162 190 216
3.8000 1.0000 -2.5000 162 190 216
3.8000 1.0000 2.5000 162 190 216
4.0000 1.0000 -2.5000 162 190 216
4.0000 1.0000 2.5000 162 190 216
-4.0000 1.0000 -2.3000 162 190 216
4.0000 1.0000 -2.3000 162 190 216
-4.0000 1.0000 -2.1000 162 190 216
4.0000 1.0000 -2.1000 162 190 216
-4.0000 1.0000 -1.9000 162 190 216
4.0000 1.0000 -1.9000 162 190 216
-4.0000 1.0000 -1.7000 162 190 216
4.0000 1.0000 -1.7000 162 190 216
-4.0000 1.0000 -1.5000 162 190 216
4.0000 1.0000 -1.5000 162 190 216
-4.0000 1.0000 -1.3000 162 190 216
4.0000 1.0000 -1.3000 162 190 216
-4.0000 1.0000 -1.1000 162 190 216
4.0000 1.0000 -1.1000 162 190 216
-4.0000 1.0000 -0.9000 162 190 216
4.0000 1.0000 -0.9000 162 190 216
-4.0000 1.0000 -0.7000 162 190 216
4.0000 1.0000 -0.7000 162 190 216
-4.0000 1.0000 -0.5000 162 190 216
4.0000 1.0000 -0.5000 162 190 216
-4.0000 1.0000 -0.3000 162 190 216
4.0000 1.0000 -0.3000 162 190 216
-4.0000 1.0000 -0.1000 162 190 216
4.0000 1.0000 -0.1000 162 190 216
-4.0000 1.0000 0.1000 162 190 216
4.0000 1.0000 0.1000 162 190 216
-4.0000 1.0000 0.3000 162 190 216
4.0000 1.0000 0.3000 162 190 216
-4.0000 1.0000 0.5000 162 190 216
4.0000 1.0000 0.5000 162 190 216
-4.0000 1.0000 0.7000 162 190 216
4.0000 1.0000 0.7000 162 190 216
-4.0000 1.0000 0.9000 162 190 216
4.0000 1.0000 0.9000 162 190 216
-4.0000 1.0000 1.1000 162 190 216
4.0000 1.0000 1.1000 162 190 216
-4.0000 1.0000 1.3000 162 190 216
4.0000 1.0000 1.3000 162 190 216
-4.0000 1.0000 1.5000 162 190 216
4.0000 1.0000 1.5000 162 190 216
-4.0000 1.0000 1.7000 162 190 216
4.0000 1.0000 1.7000 162 190 216
-4.0000 1.0000 1.9000 162 190 216
4.0000 1.0000 1.9000 162 190 216
-4.0000 1.0000 2.1000 162 190 216
4.0000 1.0000 2.1000 162 190 216
-4.0000 1.0000 2.3000 162 190 216
4.0000 1.0000 2.3000 162 190 216
-4.0000 1.2000 -2.5000 162 190 216
-4.0000 1.2000 2.5000 162 190 216
-3.8000 1.2000 -2.5000 162 190 216
-3.8000 1.2000 2.5000 162 190 216
-3.6000 1.2000 -2.5000 162 190 216
-3.6000 1.2000 2.5000 162 190 216
-3.4000 1.2000 -2.5000 162 190 216
-3.4000 1.2000 2.5000 162 190 216
-3.2000 1.2000 -2.5000 162 190 216
-3.2000 1.2000 2.5000 162 190 216
-3.0000 1.2000 -2.5000 162 190 216
-3.0000 1.2000 2.5000 162 190 216
-2.8000 1.2000 -2.5000 162 190 216
-2.8000 1.2000 2.5000 162 190 216
-2.6000 1.2000 -2.5000 162 190 216
-2.6000 1.2000 2.5000 162 190 216
-2.4000 1.2000 -2.5000 162 190 216
-2.4000 1.2000 2.5000 162 190 216
-2.2000 1.2000 -2.5000 162 190 216
-2.2000 1.2000 2.5000 162 190 216
-2.0000 1.2000 -2.5000 162 190 216
-2.0000 1.2000 2.5000 162 190 216
-1.8000 1.2000 -2.5000 162 190 216
-1.8000 1.2000 2.5000 162 190 216
-1.6000 1.2000 -2.5000 162 190 216
-1.6000 1.2000 2.5000 162 190 216
-1.4000 1.2000 -2.5000 162 190 216
-1.4000 1.2000 2.5000 162 190 216
-1.2000 1.2000 -2.5000 162 190 216
-1.2000 1.2000 2.5000 162 190 216
-1.0000 1.2000 -2.5000 162 190 216
-1.0000 1.2000 2.5000 162 190 216
-0.8000 1.2000 -2.5000 162 190 216
-0.8000 1.2000 2.5000 162 190 216
-0.6000 1.2000 -2.5000 162 190 216
-0.4000 1.2000 -2.5000 162 190 216
-0.2000 1.2000 -2.5000 162 190 216
0.0000 1.2000 -2.5000 162 190 216
0.2000 1.2000 -2.5000 162 190 216
0.4000 1.2000 -2.5000 162 190 216
0.6000 1.2000 -2.5000 162 190 216
0.8000 1.2000 -2.5000 162 190 216
0.8000 1.2000 2.5000 162 190 216
1.0000 1.2000 -2.5000 162 190 216
1.0000 1.2000 2.5000 162 190 216
1.2000 1.2000 -2.5000 162 190 216
1.2000 1.2000 2.5000 162 190 216
1.4000 1.2000 -2.5000 162 190 216
1.4000 1.2000 2.5000 162 190 216
1.6000 1.2000 -2.5000 162 190 216
1.6000 1.2000 2.5000 162 190 216
1.8000 1.2000 -2.5000 162 190 216
1.8000 1.2000 2.5000 162 190 216
2.0000 1.2000 -2.5000 162 190 216
2.0000 1.2000 2.5000 162 190 216
2.2000 1.2000 -2.5000 162 190 216
2.2000 1.2000 2.5000 162 190 216
2.4000 1.2000 -2.5000 162 190 216
2.4000 1.2000 2.5000 162 190 216
2.6000 1.2000 -2.5000 162 190 216
2.6000 1.2000 2.5000 162 190 216
2.8000 1.2000 -2.5000 162 190 216
2.8000 1.2000 2.5000 162 190 216
3.0000 1.2000 -2.5000 162 190 216
3.0000 1.2000 2.5000 162 190 216
3.2000 1.2000 -2.5000 162 190 216
3.2000 1.2000 2.5000 162 190 216
3.4000 1.2000 -2.5000 162 190 216
3.4000 1.2000 2.5000 162 190 216
3.6000 1.2000 -2.5000 162 190 216
3.6000 1.2000 2.5000 162 190 216
3.8000 1.2000 -2.5000 162 190 216
3.8000 1.2000 2.5000 162 190 216
4.0000 1.2000 -2.5000 162 190 216
4.0000 1.2000 2.5000 162 190 216
-4.0000 1.2000 -2.3000 162 190 216
4.0000 1.2000 -2.3000 162 190 216
-4.0000 1.2000 -2.1000 162 190 216
4.0000 1.2000 -2.1000 162 190 216
-4.0000 1.2000 -1.9000 162 190 216
4.0000 1.2000 -1.9000 162 190 216
-4.0000 1.2000 -1.7000 162 190 216
4.0000 1.2000 -1.7000 162 190 216
-4.0000 1.2000 -1.5000 162 190 216
4.0000 1.2000 -1.5000 162 190 216
-4.0000 1.2000 -1.3000 162 190 216
4.0000 1.2000 -1.3000 162 190 216
-4.0000 1.2000 -1.1000 162 190 216
4.0000 1.2000 -1.1000 162 190 216
-4.0000 1.2000 -0.9000 162 190 216
4.0000 1.2000 -0.9000 162 190 216
-4.0000 1.2000 -0.7000 162 190 216
4.0000 1.2000 -0.7000 162 190 216
-4.0000 1.2000 -0.5000 162 190 216
4.0000 1.2000 -0.5000 162 190 216
-4.0000 1.2000 -0.3000 162 190 216
4.0000 1.2000 -0.3000 162 190 216
-4.0000 1.2000 -0.1000 162 190 216
4.0000 1.2000 -0.1000 162 190 216
-4.0000 1.2000 0.1000 162 190 216
4.0000 1.2000 0.1000 162 190 216
-4.0000 1.2000 0.3000 162 190 216
4.0000 1.2000 0.3000 162 190 216
-4.0000 1.2000 0.5000 162 190 216
4.0000 1.2000 0.5000 162 190 216
-4.0000 1.2000 0.7000 162 190 216
4.0000 1.2000 0.7000 162 190 216
-4.0000 1.2000 0.9000 162 190 216
4.0000 1.2000 0.9000 162 190 216
-4.0000 1.2000 1.1000 162 190 216
4.0000 1.2000 1.1000 162 190 216
-4.0000 1.2000 1.3000 162 190 216
4.0000 1.2000 1.3000 162 190 216
-4.0000 1.2000 1.5000 162 190 216
4.0000 1.2000 1.5000 162 190 216
-4.0000 1.2000 1.7000 162 190 216
4.0000 1.2000 1.7000 162 190 216
-4.0000 1.2000 1.9000 162 190 216
4.0000 1.2000 1.9000 162 190 216
-4.0000 1.2000 2.1000 162 190 216
4.0000 1.2000 2.1000 162 190 216
-4.0000 1.2000 2.3000 162 190 216
4.0000 1.2000 2.3000 162 190 216
-4.0000 1.4000 -2.5000 162 190 216
-4.0000 1.4000 2.5000 162 190 216
-3.8000 1.4000 -2.5000 162 190 216
-3.8000 1.4000 2.5000 162 190 216
-3.6000 1.4000 -2.5000 162 190 216
-3.6000 1.4000 2.5000 162 190 216
-3.4000 1.4000 -2.5000 162 190 216
-3.4000 1.4000 2.5000 162 190 216
-3.2000 1.4000 -2.5000 162 190 216
-3.2000 1.4000 2.5000 162 190 216
-3.0000 1.4000 -2.5000 162 190 216
-3.0000 1.4000 2.5000 162 190 216
-2.8000 1.4000 -2.5000 162 190 216
-2.8000 1.4000 2.5000 162 190 216
-2.6000 1.4000 -2.5000 162 190 216
-2.6000 1.4000 2.5000 162 190 216
-2.4000 1.4000 -2.5000 162 190 216
-2.4000 1.4000 2.5000 162 190 216
-2.2000 1.4000 -2.5000 162 190 216
-2.2000 1.4000 2.5000 162 190 216
-2.0000 1.4000 -2.5000 162 190 216
-2.0000 1.4000 2.5000 162 190 216
-1.8000 1.4000 -2.5000 162 190 216
-1.8000 1.4000 2.5000 162 190 216
-1.6000 1.4000 -2.5000 162 190 216
-1.6000 1.4000 2.5000 162 190 216
-1.4000 1.4000 -2.5000 162 190 216
-1.4000 1.4000 2.5000 162 190 216
-1.2000 1.4000 -2.5000 162 190 216
-1.2000 1.4000 2.5000 162 190 216
-1.0000 1.4000 -2.5000 162 190 216
-1.0000 1.4000 2.5000 162 190 216
-0.8000 1.4000 -2.5000 162 190 216
-0.8000 1.4000 2.5000 162 190 216
-0.6000 1.4000 -2.5000 162 190 216
-0.4000 1.4000 -2.5000 162 190 216
-0.2000 1.4000 -2.5000 162 190 216
0.0000 1.4000 -2.5000 162 190 216
0.2000 1.4000 -2.5000 162 190 216
0.4000 1.4000 -2.5000 162 190 216
0.6000 1.4000 -2.5000 162 190 216
0.8000 1.4000 -2.5000 162 190 216
0.8000 1.4000 2.5000 162 190 216
1.0000 1.4000 -2.5000 162 190 216
1.0000 1.4000 2.5000 162 190 216
1.2000 1.4000 -2.5000 162 190 216
1.2000 1.4000 2.5000 162 190 216
1.4000 1.4000 -2.5000 162 190 216
1.4000 1.4000 2.5000 162 190 216
1.6000 1.4000 -2.5000 162 190 216
1.6000 1.4000 2.5000 162 190 216
1.8000 1.4000 -2.5000 162 190 216
1.8000 1.4000 2.5000 162 190 216
2.0000 1.4000 -2.5000 162 190 216
2.0000 1.4000 2.5000 162 190 216
2.2000 1.4000 -2.5000 162 190 216
2.2000 1.4000 2.5000 162 190 216
2.4000 1.4000 -2.5000 162 190 216
2.4000 1.4000 2.5000 162 190 216
2.6000 1.4000 -2.5000 162 190 216
2.6000 1.4000 2.5000 162 190 216
2.8000 1.4000 -2.5000 162 190 216
2.8000 1.4000 2.5000 162 190 216
3.0000 1.4000 -2.5000 162 190 216
3.0000 1.4000 2.5000 162 190 216
3.2000 1.4000 -2.5000 162 190 216
3.2000 1.4000 2.5000 162 190 216
3.4000 1.4000 -2.5000 162 190 216
3.4000 1.4000 2.5000 162 190 216
3.6000 1.4000 -2.5000 162 190 216
3.6000 1.4000 2.5000 162 190 216
3.8000 1.4000 -2.5000 162 190 216
3.8000 1.4000 2.5000 162 190 216
4.0000 1.4000 -2.5000 162 190 216
4.0000 1.4000 2.5000 162 190 216
-4.0000 1.4000 -2.3000 162 190 216
4.0000 1.4000 -2.3000 162 190 216
-4.0000 1.4000 -2.1000 162 190 216
4.0000 1.4000 -2.1000 162 190 216
-4.0000 1.4000 -1.9000 162 190 216
4.0000 1.4000 -1.9000 162 190 216
-4.0000 1.4000 -1.7000 162 190 216
4.0000 1.4000 -1.7000 162 190 216
-4.0000 1.4000 -1.5000 162 190 216
4.0000 1.4000 -1.5000 162 190 216
-4.0000 1.4000 -1.3000 162 190 216
4.0000 1.4000 -1.3000 162 190 216
-4.0000 1.4000 -1.1000 162 190 216
4.0000 1.4000 -1.1000 162 190 216
-4.0000 1.4000 -0.9000 162 190 216
4.0000 1.4000 -0.9000 162 190 216
-4.0000 1.4000 -0.7000 162 190 216
4.0000 1.4000 -0.7000 162 190 216
-4.0000 1.4000 -0.5000 162 190 216
4.0000 1.4000 -0.5000 162 190 216
-4.0000 1.4000 -0.3000 162 190 216
4.0000 1.4000 -0.3000 162 190 216
-4.0000 1.4000 -0.1000 162 190 216
4.0000 1.4000 -0.1000 162 190 216
-4.0000 1.4000 0.1000 162 190 216
4.0000 1.4000 0.1000 162 190 216
-4.0000 1.4000 0.3000 162 190 216
4.0000 1.4000 0.3000 162 190 216
-4.0000 1.4000 0.5000 162 190 216
4.0000 1.4000 0.5000 162 190 216
-4.0000 1.4000 0.7000 162 190 216
4.0000 1.4000 0.7000 162 190 216
-4.0000 1.4000 0.9000 162 190 216
4.0000 1.4000 0.9000 162 190 216
-4.0000 1.4000 1.1000 162 190 216
4.0000 1.4000 1.1000 162 190 216
-4.0000 1.4000 1.3000 162 190 216
4.0000 1.4000 1.3000 162 190 216
-4.0000 1.4000 1.5000 162 190 216
4.0000 1.4000 1.5000 162 190 216
-4.0000 1.4000 1.7000 162 190 216
4.0000 1.4000 1.7000 162 190 216
-4.0000 1.4000 1.9000 162 190 216
4.0000 1.4000 1.9000 162 190 216
-4.0000 1.4000 2.1000 162 190 216
4.0000 1.4000 2.1000 162 190 216
-4.0000 1.4000 2.3000 162 190 216
4.0000 1.4000 2.3000 162 190 216
-4.0000 1.6000 -2.5000 162 190 216
-4.0000 1.6000 2.5000 162 190 216
-3.8000 1.6000 -2.5000 162 190 216
-3.8000 1.6000 2.5000 162 190 216
-3.6000 1.6000 -2.5000 162 190 216
-3.6000 1.6000 2.5000 162 190 216
-3.4000 1.6000 -2.5000 162 190 216
-3.4000 1.6000 2.5000 162 190 216
-3.2000 1.6000 -2.5000 162 190 216
-3.2000 1.6000 2.5000 162 190 216
-3.0000 1.6000 -2.5000 162 190 216
-3.0000 1.6000 2.5000 162 190 216
-2.8000 1.6000 -2.5000 162 190 216
-2.8000 1.6000 2.5000 162 190 216
-2.6000 1.6000 -2.5000 162 190 216
-2.6000 1.6000 2.5000 162 190 216
-2.4000 1.6000 -2.5000 162 190 216
-2.4000 1.6000 2.5000 162 190 216
-2.2000 1.6000 -2.5000 162 190 216
-2.2000 1.6000 2.5000 162 190 216
-2.0000 1.6000 -2.5000 162 190 216
-2.0000 1.6000 2.5000 162 190 216
-1.8000 1.6000 -2.5000 162 190 216
-1.8000 1.6000 2.5000 162 190 216
-1.6000 1.6000 -2.5000 162 190 216
-1.6000 1.6000 2.5000 162 190 216
-1.4000 1.6000 -2.5000 162 190 216
-1.4000 1.6000 2.5000 162 190 216
-1.2000 1.6000 -2.5000 162 190 216
-1.2000 1.6000 2.5000 162 190 216
-1.0000 1.6000 -2.5000 162 190 216
-1.0000 1.6000 2.5000 162 190 216
-0.8000 1.6000 -2.5000 162 190 216
-0.8000 1.6000 2.5000 162 190 216
-0.6000 1.6000 -2.5000 162 190 216
-0.4000 1.6000 -2.5000 162 190 216
-0.2000 1.6000 -2.5000 162 190 216
0.0000 1.6000 -2.5000 162 190 216
0.2000 1.6000 -2.5000 162 190 216
0.4000 1.6000 -2.5000 162 190 216
0.6000 1.6000 -2.5000 162 190 216
0.8000 1.6000 -2.5000 162 190 216
0.8000 1.6000 2.5000 162 190 216
1.0000 1.6000 -2.5000 162 190 216
1.0000 1.6000 2.5000 162 190 216
1.2000 1.6000 -2.5000 162 190 216
1.2000 1.6000 2.5000 162 190 216
1.4000 1.6000 -2.5000 162 190 216
1.4000 1.6000 2.5000 162 190 216
1.6000 1.6000 -2.5000 162 190 216
1.6000 1.6000 2.5000 162 190 216
1.8000 1.6000 -2.5000 162 190 216
1.8000 1.6000 2.5000 162 190 216
2.0000 1.6000 -2.5000 162 190 216
2.0000 1.6000 2.5000 162 190 216
2.2000 1.6000 -2.5000 162 190 216
2.2000 1.6000 2.5000 162 190 216
2.4000 1.6000 -2.5000 162 190 216
2.4000 1.6000 2.5000 162 190 216
2.6000 1.6000 -2.5000 162 190 216
2.6000 1.6000 2.5000 162 190 216
2.8000 1.6000 -2.5000 162 190 216
2.8000 1.6000 2.5000 162 190 216
3.0000 1.6000 -2.5000 162 190 216
3.0000 1.6000 2.5000 162 190 216
3.2000 1.6000 -2.5000 162 190 216
3.2000 1.6000 2.5000 162 190 216
3.4000 1.6000 -2.5000 162 190 216
3.4000 1.6000 2.5000 162 190 216
3.6000 1.6000 -2.5000 162 190 216
3.6000 1.6000 2.5000 162 190 216
3.8000 1.6000 -2.5000 162 190 216
3.8000 1.6000 2.5000 162 190 216
4.0000 1.6000 -2.5000 162 190 216
4.0000 1.6000 2.5000 162 190 216
-4.0000 1.6000 -2.3000 162 190 216
4.0000 1.6000 -2.3000 162 190 216
-4.0000 1.6000 -2.1000 162 190 216
4.0000 1.6000 -2.1000 162 190 216
-4.0000 1.6000 -1.9000 162 190 216
4.0000 1.6000 -1.9000 162 190 216
-4.0000 1.6000 -1.7000 162 190 216
4.0000 1.6000 -1.7000 162 190 216
-4.0000 1.6000 -1.5000 162 190 216
4.0000 1.6000 -1.5000 162 190 216
-4.0000 1.6000 -1.3000 162 190 216
4.0000 1.6000 -1.3000 162 190 216
-4.0000 1.6000 -1.1000 162 190 216
4.0000 1.6000 -1.1000 162 190 216
-4.0000 1.6000 -0.9000 162 190 216
4.0000 1.6000 -0.9000 162 190 216
-4.0000 1.6000 -0.7000 162 190 216
4.0000 1.6000 -0.7000 162 190 216
-4.0000 1.6000 -0.5000 162 190 216
4.0000 1.6000 -0.5000 162 190 216
-4.0000 1.6000 -0.3000 162 190 216
4.0000 1.6000 -0.3000 162 190 216
-4.0000 1.6000 -0.1000 162 190 216
4.0000 1.6000 -0.1000 162 190 216
-4.0000 1.6000 0.1000 162 190 216
4.0000 1.6000 0.1000 162 190 216
-4.0000 1.6000 0.3000 162 190 216
4.0000 1.6000 0.3000 162 190 216
-4.0000 1.6000 0.5000 162 190 216
4.0000 1.6000 0.5000 162 190 216
-4.0000 1.6000 0.7000 162 190 216
4.0000 1.6000 0.7000 162 190 216
-4.0000 1.6000 0.9000 162 190 216
4.0000 1.6000 0.9000 162 190 216
-4.0000 1.6000 1.1000 162 190 216
4.0000 1.6000 1.1000 162 190 216
-4.0000 1.6000 1.3000 162 190 216
4.0000 1.6000 1.3000 162 190 216
-4.0000 1.6000 1.5000 162 190 216
4.0000 1.6000 1.5000 162 190 216
-4.0000 1.6000 1.7000 162 190 216
4.0000 1.6000 1.7000 162 190 216
-4.0000 1.6000 1.9000 162 190 216
4.0000 1.6000 1.9000 162 190 216
-4.0000 1.6000 2.1000 162 190 216
4.0000 1.6000 2.1000 162 190 216
-4.0000 1.6000 2.3000 162 190 216
4.0000 1.6000 2.3000 162 190 216
-4.0000 1.8000 -2.5000 162 190 216
-4.0000 1.8000 2.5000 162 190 216
-3.8000 1.8000 -2.5000 162 190 216
-3.8000 1.8000 2.5000 162 190 216
-3.6000 1.8000 -2.5000 162 190 216
-3.6000 1.8000 2.5000 162 190 216
-3.4000 1.8000 -2.5000 162 190 216
-3.4000 1.8000 2.5000 162 190 216
-3.2000 1.8000 -2.5000 162 190 216
-3.2000 1.8000 2.5000 162 190 216
-3.0000 1.8000 -2.5000 162 190 216
-3.0000 1.8000 2.5000 162 190 216
-2.8000 1.8000 -2.5000 162 190 216
-2.8000 1.8000 2.5000 162 190 216
-2.6000 1.8000 -2.5000 162 190 216
-2.6000 1.8000 2.5000 162 190 216
-2.4000 1.8000 -2.5000 162 190 216
-2.4000 1.8000 2.5000 162 190 216
-2.2000 1.8000 -2.5000 162 190 216
-2.2000 1.8000 2.5000 162 190 216
-2.0000 1.8000 -2.5000 162 190 216
-2.0000 1.8000 2.5000 162 190 216
-1.8000 1.8000 -2.5000 162 190 216
-1.8000 1.8000 2.5000 162 190 216
-1.6000 1.8000 -2.5000 162 190 216
-1.6000 1.8000 2.5000 162 190 216
-1.4000 1.8000 -2.5000 162 190 216
-1.4000 1.8000 2.5000 162 190 216
-1.2000 1.8000 -2.5000 162 190 216
-1.2000 1.8000 2.5000 162 190 216
-1.0000 1.8000 -2.5000 162 190 216
-1.0000 1.8000 2.5000 162 190 216
-0.8000 1.8000 -2.5000 162 190 216
-0.8000 1.8000 2.5000 162 190 216
-0.6000 1.8000 -2.5000 162 190 216
-0.4000 1.8000 -2.5000 162 190 216
-0.2000 1.8000 -2.5000 162 190 216
0.0000 1.8000 -2.5000 162 190 216
0.2000 1.8000 -2.5000 162 190 216
0.4000 1.8000 -2.5000 162 190 216
0.6000 1.8000 -2.5000 162 190 216
0.8000 1.8000 -2.5000 162 190 216
0.8000 1.8000 2.5000 162 190 216
1.0000 1.8000 -2.5000 162 190 216
1.0000 1.8000 2.5000 162 190 216
1.2000 1.8000 -2.5000 162 190 216
1.2000 1.8000 2.5000 162 190 216
1.4000 1.8000 -2.5000 162 190 216
1.4000 1.8000 2.5000 162 190 216
1.6000 1.8000 -2.5000 162 190 216
1.6000 1.8000 2.5000 162 190 216
1.8000 1.8000 -2.5000 162 190 216
1.8000 1.8000 2.5000 162 190 216
2.0000 1.8000 -2.5000 162 190 216
2.0000 1.8000 2.5000 162 190 216
2.2000 1.8000 -2.5000 162 190 216
2.2000 1.8000 2.5000 162 190 216
2.4000 1.8000 -2.5000 162 190 216
2.4000 1.8000 2.5000 162 190 216
2.6000 1.8000 -2.5000 162 190 216
2.6000 1.8000 2.5000 162 190 216
2.8000 1.8000 -2.5000 162 190 216
2.8000 1.8000 2.5000 162 190 216
3.0000 1.8000 -2.5000 162 190 216
3.0000 1.8000 2.5000 162 190 216
3.2000 1.8000 -2.5000 162 190 216
3.2000 1.8000 2.5000 162 190 216
3.4000 1.8000 -2.5000 162 190 216
3.4000 1.8000 2.5000 162 190 216
3.6000 1.8000 -2.5000 162 190 216
3.6000 1.8000 2.5000 162 190 216
3.8000 1.8000 -2.5000 162 190 216
3.8000 1.8000 2.5000 162 190 216
4.0000 1.8000 -2.5000 162 190 216
4.0000 1.8000 2.5000 162 190 216
-4.0000 1.8000 -2.3000 162 190 216
4.0000 1.8000 -2.3000 162 190 216
-4.0000 1.8000 -2.1000 162 190 216
4.0000 1.8000 -2.1000 162 190 216
-4.0000 1.8000 -1.9000 162 190 216
4.0000 1.8000 -1.9000 162 190 216
-4.0000 1.8000 -1.7000 162 190 216
4.0000 1.8000 -1.7000 162 190 216
-4.0000 1.8000 -1.5000 162 190 216
4.0000 1.8000 -1.5000 162 190 216
-4.0000 1.8000 -1.3000 162 190 216
4.0000 1.8000 -1.3000 162 190 216
-4.0000 1.8000 -1.1000 162 190 216
4.0000 1.8000 -1.1000 162 190 216
-4.0000 1.8000 -0.9000 162 190 216
4.0000 1.8000 -0.9000 162 190 216
-4.0000 1.8000 -0.7000 162 190 216
4.0000 1.8000 -0.7000 162 190 216
-4.0000 1.8000 -0.5000 162 190 216
4.0000 1.8000 -0.5000 162 190 216
-4.0000 1.8000 -0.3000 162 190 216
4.0000 1.8000 -0.3000 162 190 216
-4.0000 1.8000 -0.1000 162 190 216
4.0000 1.8000 -0.1000 162 190 216
-4.0000 1.8000 0.1000 162 190 216
4.0000 1.8000 0.1000 162 190 216
-4.0000 1.8000 0.3000 162 190 216
4.0000 1.8000 0.3000 162 190 216
-4.0000 1.8000 0.5000 162 190 216
4.0000 1.8000 0.5000 162 190 216
-4.0000 1.8000 0.7000 162 190 216
4.0000 1.8000 0.7000 162 190 216
-4.0000 1.8000 0.9000 162 190 216
4.0000 1.8000 0.9000 162 190 216
-4.0000 1.8000 1.1000 162 190 216
4.0000 1.8000 1.1000 162 190 216
-4.0000 1.8000 1.3000 162 190 216
4.0000 1.8000 1.3000 162 190 216
-4.0000 1.8000 1.5000 162 190 216
4.0000 1.8000 1.5000 162 190 216
-4.0000 1.8000 1.7000 162 190 216
4.0000 1.8000 1.7000 162 190 216
-4.0000 1.8000 1.9000 162 190 216
4.0000 1.8000 1.9000 162 190 216
-4.0000 1.8000 2.1000 162 190 216
4.0000 1.8000 2.1000 162 190 216
-4.0000 1.8000 2.3000 162 190 216
4.0000 1.8000 2.3000 162 190 216
-4.0000 2.0000 -2.5000 162 190 216
-4.0000 2.0000 2.5000 162 190 216
-3.8000 2.0000 -2.5000 162 190 216
-3.8000 2.0000 2.5000 162 190 216
-3.6000 2.0000 -2.5000 162 190 216
-3.6000 2.0000 2.5000 162 190 216
-3.4000 2.0000 -2.5000 162 190 216
-3.4000 2.0000 2.5000 162 190 216
-3.2000 2.0000 -2.5000 162 190 216
-3.2000 2.0000 2.5000 162 190 216
-3.0000 2.0000 -2.5000 162 190 216
-3.0000 2.0000 2.5000 162 190 216
-2.8000 2.0000 -2.5000 162 190 216
-2.8000 2.0000 2.5000 162 190 216
-2.6000 2.0000 -2.5000 162 190 216
-2.6000 2.0000 2.5000 162 190 216
-2.4000 2.0000 -2.5000 162 190 216
-2.4000 2.0000 2.5000 162 190 216
-2.2000 2.0000 -2.5000 162 190 216
-2.2000 2.0000 2.5000 162 190 216
-2.0000 2.0000 -2.5000 162 190 216
-2.0000 2.0000 2.5000 162 190 216
-1.8000 2.0000 -2.5000 162 190 216
-1.8000 2.0000 2.5000 162 190 216
-1.6000 2.0000 -2.5000 162 190 216
-1.6000 2.0000 2.5000 162 190 216
-1.4000 2.0000 -2.5000 162 190 216
-1.4000 2.0000 2.5000 162 190 216
-1.2000 2.0000 -2.5000 162 190 216
-1.2000 2.0000 2.5000 162 190 216
-1.0000 2.0000 -2.5000 162 190 216
-1.0000 2.0000 2.5000 162 190 216
-0.8000 2.0000 -2.5000 162 190 216
-0.8000 2.0000 2.5000 162 190 216
-0.6000 2.0000 -2.5000 162 190 216
-0.4000 2.0000 -2.5000 162 190 216
-0.2000 2.0000 -2.5000 162 190 216
0.0000 2.0000 -2.5000 162 190 216
0.2000 2.0000 -2.5000 162 190 216
0.4000 2.0000 -2.5000 162 190 216
0.6000 2.0000 -2.5000 162 190 216
0.8000 2.0000 -2.5000 162 190 216
0.8000 2.0000 2.5000 162 190 216
1.0000 2.0000 -2.5000 162 190 216
1.0000 2.0000 2.5000 162 190 216
1.2000 2.0000 -2.5000 162 190 216
1.2000 2.0000 2.5000 162 190 216
1.4000 2.0000 -2.5000 162 190 216
1.4000 2.0000 2.5000 162 190 216
1.6000 2.0000 -2.5000 162 190 216
1.6000 2.0000 2.5000 162 190 216
1.8000 2.0000 -2.5000 162 190 216
1.8000 2.0000 2.5000 162 190 216
2.0000 2.0000 -2.5000 162 190 216
2.0000 2.0000 2.5000 162 190 216
2.2000 2.0000 -2.5000 162 190 216
2.2000 2.0000 2.5000 162 190 216
2.4000 2.0000 -2.5000 162 190 216
2.4000 2.0000 2.5000 162 190 216
2.6000 2.0000 -2.5000 162 190 216
2.6000 2.0000 2.5000 162 190 216
2.8000 2.0000 -2.5000 162 190 216
2.8000 2.0000 2.5000 162 190 216
3.0000 2.0000 -2.5000 162 190 216
3.0000 2.0000 2.5000 162 190 216
3.2000 2.0000 -2.5000 162 190 216
3.2000 2.0000 2.5000 162 190 216
3.4000 2.0000 -2.5000 162 190 216
3.4000 2.0000 2.5000 162 190 216
3.6000 2.0000 -2.5000 162 190 216
3.6000 2.0000 2.5000 162 190 216
3.8000 2.0000 -2.5000 162 190 216
3.8000 2.0000 2.5000 162 190 216
4.0000 2.0000 -2.5000 162 190 216
4.0000 2.0000 2.5000 162 190 216
-4.0000 2.0000 -2.3000 162 190 216
4.0000 2.0000 -2.3000 162 190 216
-4.0000 2.0000 -2.1000 162 190 216
4.0000 2.0000 -2.1000 162 190 216
-4.0000 2.0000 -1.9000 162 190 216
4.0000 2.0000 -1.9000 162 190 216
-4.0000 2.0000 -1.7000 162 190 216
4.0000 2.0000 -1.7000 162 190 216
-4.0000 2.0000 -1.5000 162 190 216
4.0000 2.0000 -1.5000 162 190 216
-4.0000 2.0000 -1.3000 162 190 216
4.0000 2.0000 -1.3000 162 190 216
-4.0000 2.0000 -1.1000 162 190 216
4.0000 2.0000 -1.1000 162 190 216
-4.0000 2.0000 -0.9000 162 190 216
4.0000 2.0000 -0.9000 162 190 216
-4.0000 2.0000 -0.7000 162 190 216
4.0000 2.0000 -0.7000 162 190 216
-4.0000 2.0000 -0.5000 162 190 216
4.0000 2.0000 -0.5000 162 190 216
-4.0000 2.0000 -0.3000 162 190 216
4.0000 2.0000 -0.3000 162 190 216
-4.0000 2.0000 -0.1000 162 190 216
4.0000 2.0000 -0.1000 162 190 216
-4.0000 2.0000 0.1000 162 190 216
4.0000 2.0000 0.1000 162 190 216
-4.0000 2.0000 0.3000 162 190 216
4.0000 2.0000 0.3000 162 190 216
-4.0000 2.0000 0.5000 162 190 216
4.0000 2.0000 0.5000 162 190 216
-4.0000 2.0000 0.7000 162 190 216
4.0000 2.0000 0.7000 162 190 216
-4.0000 2.0000 0.9000 162 190 216
4.0000 2.0000 0.9000 162 190 216
-4.0000 2.0000 1.1000 162 190 216
4.0000 2.0000 1.1000 162 190 216
-4.0000 2.0000 1.3000 162 190 216
4.0000 2.0000 1.3000 162 190 216
-4.0000 2.0000 1.5000 162 190 216
4.0000 2.0000 1.5000 162 190 216
-4.0000 2.0000 1.7000 162 190 216
4.0000 2.0000 1.7000 162 190 216
-4.0000 2.0000 1.9000 162 190 216
4.0000 2.0000 1.9000 162 190 216
-4.0000 2.0000 2.1000 162 190 216
4.0000 2.0000 2.1000 162 190 216
-4.0000 2.0000 2.3000 162 190 216
4.0000 2.0000 2.3000 162 190 216
-4.0000 2.2000 -2.5000 162 190 216
-4.0000 2.2000 2.5000 162 190 216
-3.8000 2.2000 -2.5000 162 190 216
-3.8000 2.2000 2.5000 162 190 216
-3.6000 2.2000 -2.5000 162 190 216
-3.6000 2.2000 2.5000 162 190 216
-3.4000 2.2000 -2.5000 162 190 216
-3.4000 2.2000 2.5000 162 190 216
-3.2000 2.2000 -2.5000 162 190 216
-3.2000 2.2000 2.5000 162 190 216
-3.0000 2.2000 -2.5000 162 190 216
-3.0000 2.2000 2.5000 162 190 216
-2.8000 2.2000 -2.5000 162 190 216
-2.8000 2.2000 2.5000 162 190 216
-2.6000 2.2000 -2.5000 162 190 216
-2.6000 2.2000 2.5000 162 190 216
-2.4000 2.2000 -2.5000 162 190 216
-2.4000 2.2000 2.5000 162 190 216
-2.2000 2.2000 -2.5000 162 190 216
-2.2000 2.2000 2.5000 162 190 216
-2.0000 2.2000 -2.5000 162 190 216
-2.0000 2.2000 2.5000 162 190 216
-1.8000 2.2000 -2.5000 162 190 216
-1.8000 2.2000 2.5000 162 190 216
-1.6000 2.2000 -2.5000 162 190 216
-1.6000 2.2000 2.5000 162 190 216
-1.4000 2.2000 -2.5000 162 190 216
-1.4000 2.2000 2.5000 162 190 216
-1.2000 2.2000 -2.5000 162 190 216
-1.2000 2.2000 2.5000 162 190 216
-1.0000 2.2000 -2.5000 162 190 216
-1.0000 2.2000 2.5000 162 190 216
-0.8000 2.2000 -2.5000 162 190 216
-0.8000 2.2000 2.5000 162 190 216
-0.6000 2.2000 -2.5000 162 190 216
-0.4000 2.2000 -2.5000 162 190 216
-0.2000 2.2000 -2.5000 162 190 216
0.0000 2.2000 -2.5000 162 190 216
0.2000 2.2000 -2.5000 162 190 216
0.4000 2.2000 -2.5000 162 190 216
0.6000 2.2000 -2.5000 162 190 216
0.8000 2.2000 -2.5000 162 190 216
0.8000 2.2000 2.5000 162 190 216
1.0000 2.2000 -2.5000 162 190 216
1.0000 2.2000 2.5000 162 190 216
1.2000 2.2000 -2.5000 162 190 216
1.2000 2.2000 2.5000 162 190 216
1.4000 2.2000 -2.5000 162 190 216
1.4000 2.2000 2.5000 162 190 216
1.6000 2.2000 -2.5000 162 190 216
1.6000 2.2000 2.5000 162 190 216
1.8000 2.2000 -2.5000 162 190 216
1.8000 2.2000 2.5000 162 190 216
2.0000 2.2000 -2.5000 162 190 216
2.0000 2.2000 2.5000 162 190 216
2.2000 2.2000 -2.5000 162 190 216
2.2000 2.2000 2.5000 162 190 216
2.4000 2.2000 -2.5000 162 190 216
2.4000 2.2000 2.5000 162 190 216
2.6000 2.2000 -2.5000 162 190 216
2.6000 2.2000 2.5000 162 190 216
2.8000 2.2000 -2.5000 162 190 216
2.8000 2.2000 2.5000 162 190 216
3.0000 2.2000 -2.5000 162 190 216
3.0000 2.2000 2.5000 162 190 216
3.2000 2.2000 -2.5000 162 190 216
3.2000 2.2000 2.5000 162 190 216
3.4000 2.2000 -2.5000 162 190 216
3.4000 2.2000 2.5000 162 190 216
3.6000 2.2000 -2.5000 162 190 216
3.6000 2.2000 2.5000 162 190 216
3.8000 2.2000 -2.5000 162 190 216
3.8000 2.2000 2.5000 162 190 216
4.0000 2.2000 -2.5000 162 190 216
4.0000 2.2000 2.5000 162 190 216
-4.0000 2.2000 -2.3000 162 190 216
4.0000 2.2000 -2.3000 162 190 216
-4.0000 2.2000 -2.1000 162 190 216
4.0000 2.2000 -2.1000 162 190 216
-4.0000 2.2000 -1.9000 162 190 216
4.0000 2.2000 -1.9000 162 190 216
-4.0000 2.2000 -1.7000 162 190 216
4.0000 2.2000 -1.7000 162 190 216
-4.0000 2.2000 -1.5000 162 190 216
4.0000 2.2000 -1.5000 162 190 216
-4.0000 2.2000 -1.3000 162 190 216
4.0000 2.2000 -1.3000 162 190 216
-4.0000 2.2000 -1.1000 162 190 216
4.0000 2.2000 -1.1000 162 190 216
-4.0000 2.2000 -0.9000 162 190 216
4.0000 2.2000 -0.9000 162 190 216
-4.0000 2.2000 -0.7000 162 190 216
4.0000 2.2000 -0.7000 162 190 216
-4.0000 2.2000 -0.5000 162 190 216
4.0000 2.2000 -0.5000 162 190 216
-4.0000 2.2000 -0.3000 162 190 216
4.0000 2.2000 -0.3000 162 190 216
-4.0000 2.2000 -0.1000 162 190 216
4.0000 2.2000 -0.1000 162 190 216
-4.0000 2.2000 0.1000 162 190 216
4.0000 2.2000 0.1000 162 190 216
-4.0000 2.2000 0.3000 162 190 216
4.0000 2.2000 0.3000 162 190 216
-4.0000 2.2000 0.5000 162 190 216
4.0000 2.2000 0.5000 162 190 216
-4.0000 2.2000 0.7000 162 190 216
4.0000 2.2000 0.7000 162 190 216
-4.0000 2.2000 0.9000 162 190 216
4.0000 2.2000 0.9000 162 190 216
-4.0000 2.2000 1.1000 162 190 216
4.0000 2.2000 1.1000 162 190 216
-4.0000 2.2000 1.3000 162 190 216
4.0000 2.2000 1.3000 162 190 216
-4.0000 2.2000 1.5000 162 190 216
4.0000 2.2000 1.5000 162 190 216
-4.0000 2.2000 1.7000 162 190 216
4.0000 2.2000 1.7000 162 190 216
-4.0000 2.2000 1.9000 162 190 216
4.0000 2.2000 1.9000 162 190 216
-4.0000 2.2000 2.1000 162 190 216
4.0000 2.2000 2.1000 162 190 216
-4.0000 2.2000 2.3000 162 190 216
4.0000 2.2000 2.3000 162 190 216
-4.0000 2.4000 -2.5000 162 190 216
-4.0000 2.4000 2.5000 162 190 216
-3.8000 2.4000 -2.5000 162 190 216
-3.8000 2.4000 2.5000 162 190 216
-3.6000 2.4000 -2.5000 162 190 216
-3.6000 2.4000 2.5000 162 190 216
-3.4000 2.4000 -2.5000 162 190 216
-3.4000 2.4000 2.5000 162 190 216
-3.2000 2.4000 -2.5000 162 190 216
-3.2000 2.4000 2.5000 162 190 216
-3.0000 2.4000 -2.5000 162 190 216
-3.0000 2.4000 2.5000 162 190 216
-2.8000 2.4000 -2.5000 162 190 216
-2.8000 2.4000 2.5000 162 190 216
-2.6000 2.4000 -2.5000 162 190 216
-2.6000 2.4000 2.5000 162 190 216
-2.4000 2.4000 -2.5000 162 190 216
-2.4000 2.4000 2.5000 162 190 216
-2.2000 2.4000 -2.5000 162 190 216
-2.2000 2.4000 2.5000 162 190 216
-2.0000 2.4000 -2.5000 162 190 216
-2.0000 2.4000 2.5000 162 190 216
-1.8000 2.4000 -2.5000 162 190 216
-1.8000 2.4000 2.5000 162 190 216
-1.6000 2.4000 -2.5000 162 190 216
-1.6000 2.4000 2.5000 162 190 216
-1.4000 2.4000 -2.5000 162 190 216
-1.4000 2.4000 2.5000 162 190 216
-1.2000 2.4000 -2.5000 162 190 216
-1.2000 2.4000 2.5000 162 190 216
-1.0000 2.4000 -2.5000 162 190 216
-1.0000 2.4000 2.5000 162 190 216
-0.8000 2.4000 -2.5000 162 190 216
-0.8000 2.4000 2.5000 162 190 216
-0.6000 2.4000 -2.5000 162 190 216
-0.6000 2.4000 2.5000 162 190 216
-0.4000 2.4000 -2.5000 162 190 216
-0.4000 2.4000 2.5000 162 190 216
-0.2000 2.4000 -2.5000 162 190 216
-0.2000 2.4000 2.5000 162 190 216
0.0000 2.4000 -2.5000 162 190 216
0.0000 2.4000 2.5000 162 190 216
0.2000 2.4000 -2.5000 162 190 216
0.2000 2.4000 2.5000 162 190 216
0.4000 2.4000 -2.5000 162 190 216
0.4000 2.4000 2.5000 162 190 216
0.6000 2.4000 -2.5000 162 190 216
0.6000 2.4000 2.5000 162 190 216
0.8000 2.4000 -2.5000 162 190 216
0.8000 2.4000 2.5000 162 190 216
1.0000 2.4000 -2.5000 162 190 216
1.0000 2.4000 2.5000 162 190 216
1.2000 2.4000 -2.5000 162 190 216
1.2000 2.4000 2.5000 162 190 216
1.4000 2.4000 -2.5000 162 190 216
1.4000 2.4000 2.5000 162 190 216
1.6000 2.4000 -2.5000 162 190 216
1.6000 2.4000 2.5000 162 190 216
1.8000 2.4000 -2.5000 162 190 216
1.8000 2.4000 2.5000 162 190 216
2.0000 2.4000 -2.5000 162 190 216
2.0000 2.4000 2.5000 162 190 216
2.2000 2.4000 -2.5000 162 190 216
2.2000 2.4000 2.5000 162 190 216
2.4000 2.4000 -2.5000 162 190 216
2.4000 2.4000 2.5000 162 190 216
2.6000 2.4000 -2.5000 162 190 216
2.6000 2.4000 2.5000 162 190 216
2.8000 2.4000 -2.5000 162 190 216
2.8000 2.4000 2.5000 162 190 216
3.0000 2.4000 -2.5000 162 190 216
3.0000 2.4000 2.5000 162 190 216
3.2000 2.4000 -2.5000 162 190 216
3.2000 2.4000 2.5000 162 190 216
3.4000 2.4000 -2.5000 162 190 216
3.4000 2.4000 2.5000 162 190 216
3.6000 2.4000 -2.5000 162 190 216
3.6000 2.4000 2.5000 162 190 216
3.8000 2.4000 -2.5000 162 190 216
3.8000 2.4000 2.5000 162 190 216
4.0000 2.4000 -2.5000 162 190 216
4.0000 2.4000 2.5000 162 190 216
-4.0000 2.4000 -2.3000 162 190 216
4.0000 2.4000 -2.3000 162 190 216
-4.0000 2.4000 -2.1000 162 190 216
4.0000 2.4000 -2.1000 162 190 216
-4.0000 2.4000 -1.9000 162 190 216
4.0000 2.4000 -1.9000 162 190 216
-4.0000 2.4000 -1.7000 162 190 216
4.0000 2.4000 -1.7000 162 190 216
-4.0000 2.4000 -1.5000 162 190 216
4.0000 2.4000 -1.5000 162 190 216
-4.0000 2.4000 -1.3000 162 190 216
4.0000 2.4000 -1.3000 162 190 216
-4.0000 2.4000 -1.1000 162 190 216
4.0000 2.4000 -1.1000 162 190 216
-4.0000 2.4000 -0.9000 162 190 216
4.0000 2.4000 -0.9000 162 190 216
-4.0000 2.4000 -0.7000 162 190 216
4.0000 2.4000 -0.7000 162 190 216
-4.0000 2.4000 -0.5000 162 190 216
4.0000 2.4000 -0.5000 162 190 216
-4.0000 2.4000 -0.3000 162 190 216
4.0000 2.4000 -0.3000 162 190 216
-4.0000 2.4000 -0.1000 162 190 216
4.0000 2.4000 -0.1000 162 190 216
-4.0000 2.4000 0.1000 162 190 216
4.0000 2.4000 0.1000 162 190 216
-4.0000 2.4000 0.3000 162 190 216
4.0000 2.4000 0.3000 162 190 216
-4.0000 2.4000 0.5000 162 190 216
4.0000 2.4000 0.5000 162 190 216
-4.0000 2.4000 0.7000 162 190 216
4.0000 2.4000 0.7000 162 190 216
-4.0000 2.4000 0.9000 162 190 216
4.0000 2.4000 0.9000 162 190 216
-4.0000 2.4000 1.1000 162 190 216
4.0000 2.4000 1.1000 162 190 216
-4.0000 2.4000 1.3000 162 190 216
4.0000 2.4000 1.3000 162 190 216
-4.0000 2.4000 1.5000 162 190 216
4.0000 2.4000 1.5000 162 190 216
-4.0000 2.4000 1.7000 162 190 216
4.0000 2.4000 1.7000 162 190 216
-4.0000 2.4000 1.9000 162 190 216
4.0000 2.4000 1.9000 162 190 216
-4.0000 2.4000 2.1000 162 190 216
4.0000 2.4000 2.1000 162 190 216
-4.0000 2.4000 2.3000 162 190 216
4.0000 2.4000 2.3000 162 190 216
-4.0000 2.6000 -2.5000 162 190 216
-4.0000 2.6000 2.5000 162 190 216
-3.8000 2.6000 -2.5000 162 190 216
-3.8000 2.6000 2.5000 162 190 216
-3.6000 2.6000 -2.5000 162 190 216
-3.6000 2.6000 2.5000 162 190 216
-3.4000 2.6000 -2.5000 162 190 216
-3.4000 2.6000 2.5000 162 190 216
-3.2000 2.6000 -2.5000 162 190 216
-3.2000 2.6000 2.5000 162 190 216
-3.0000 2.6000 -2.5000 162 190 216
-3.0000 2.6000 2.5000 162 190 216
-2.8000 2.6000 -2.5000 162 190 216
-2.8000 2.6000 2.5000 162 190 216
-2.6000 2.6000 -2.5000 162 190 216
-2.6000 2.6000 2.5000 162 190 216
-2.4000 2.6000 -2.5000 162 190 216
-2.4000 2.6000 2.5000 162 190 216
-2.2000 2.6000 -2.5000 162 190 216
-2.2000 2.6000 2.5000 162 190 216
-2.0000 2.6000 -2.5000 162 190 216
-2.0000 2.6000 2.5000 162 190 216
-1.8000 2.6000 -2.5000 162 190 216
-1.8000 2.6000 2.5000 162 190 216
-1.6000 2.6000 -2.5000 162 190 216
-1.6000 2.6000 2.5000 162 190 216
-1.4000 2.6000 -2.5000 162 190 216
-1.4000 2.6000 2.5000 162 190 216
-1.2000 2.6000 -2.5000 162 190 216
-1.2000 2.6000 2.5000 162 190 216
-1.0000 2.6000 -2.5000 162 190 216
-1.0000 2.6000 2.5000 162 190 216
-0.8000 2.6000 -2.5000 162 190 216
-0.8000 2.6000 2.5000 162 190 216
-0.6000 2.6000 -2.5000 162 190 216
-0.6000 2.6000 2.5000 162 190 216
-0.4000 2.6000 -2.5000 162 190 216
-0.4000 2.6000 2.5000 162 190 216
-0.2000 2.6000 -2.5000 162 190 216
-0.2000 2.6000 2.5000 162 190 216
0.0000 2.6000 -2.5000 162 190 216
0.0000 2.6000 2.5000 162 190 216
0.2000 2.6000 -2.5000 162 190 216
0.2000 2.6000 2.5000 162 190 216
0.4000 2.6000 -2.5000 162 190 216
0.4000 2.6000 2.5000 162 190 216
0.6000 2.6000 -2.5000 162 190 216
0.6000 2.6000 2.5000 162 190 216
0.8000 2.6000 -2.5000 162 190 216
0.8000 2.6000 2.5000 162 190 216
1.0000 2.6000 -2.5000 162 190 216
1.0000 2.6000 2.5000 162 190 216
1.2000 2.6000 -2.5000 162 190 216
1.2000 2.6000 2.5000 162 190 216
1.4000 2.6000 -2.5000 162 190 216
1.4000 2.6000 2.5000 162 190 216
1.6000 2.6000 -2.5000 162 190 216
1.6000 2.6000 2.5000 162 190 216
1.8000 2.6000 -2.5000 162 190 216
1.8000 2.6000 2.5000 162 190 216
2.0000 2.6000 -2.5000 162 190 216
2.0000 2.6000 2.5000 162 190 216
2.2000 2.6000 -2.5000 162 190 216
2.2000 2.6000 2.5000 162 190 216
2.4000 2.6000 -2.5000 162 190 216
2.4000 2.6000 2.5000 162 190 216
2.6000 2.6000 -2.5000 162 190 216
2.6000 2.6000 2.5000 162 190 216
2.8000 2.6000 -2.5000 162 190 216
2.8000 2.6000 2.5000 162 190 216
3.0000 2.6000 -2.5000 162 190 216
3.0000 2.6000 2.5000 162 190 216
3.2000 2.6000 -2.5000 162 190 216
3.2000 2.6000 2.5000 162 190 216
3.4000 2.6000 -2.5000 162 190 216
3.4000 2.6000 2.5000 162 190 216
3.6000 2.6000 -2.5000 162 190 216
3.6000 2.6000 2.5000 162 190 216
3.8000 2.6000 -2.5000 162 190 216
3.8000 2.6000 2.5000 162 190 216
4.0000 2.6000 -2.5000 162 190 216
4.0000 2.6000 2.5000 162 190 216
-4.0000 2.6000 -2.3000 162 190 216
4.0000 2.6000 -2.3000 162 190 216
-4.0000 2.6000 -2.1000 162 190 216
4.0000 2.6000 -2.1000 162 190 216
-4.0000 2.6000 -1.9000 162 190 216
4.0000 2.6000 -1.9000 162 190 216
-4.0000 2.6000 -1.7000 162 190 216
4.0000 2.6000 -1.7000 162 190 216
-4.0000 2.6000 -1.5000 162 190 216
4.0000 2.6000 -1.5000 162 190 216
-4.0000 2.6000 -1.3000 162 190 216
4.0000 2.6000 -1.3000 162 190 216
-4.0000 2.6000 -1.1000 162 190 216
4.0000 2.6000 -1.1000 162 190 216
-4.0000 2.6000 -0.9000 162 190 216
4.0000 2.6000 -0.9000 162 190 216
-4.0000 2.6000 -0.7000 162 190 216
4.0000 2.6000 -0.7000 162 190 216
-4.0000 2.6000 -0.5000 162 190 216
4.0000 2.6000 -0.5000 162 190 216
-4.0000 2.6000 -0.3000 162 190 216
4.0000 2.6000 -0.3000 162 190 216
-4.0000 2.6000 -0.1000 162 190 216
4.0000 2.6000 -0.1000 162 190 216
-4.0000 2.6000 0.1000 162 190 216
4.0000 2.6000 0.1000 162 190 216
-4.0000 2.6000 0.3000 162 190 216
4.0000 2.6000 0.3000 162 190 216
-4.0000 2.6000 0.5000 162 190 216
4.0000 2.6000 0.5000 162 190 216
-4.0000 2.6000 0.7000 162 190 216
4.0000 2.6000 0.7000 162 190 216
-4.0000 2.6000 0.9000 162 190 216
4.0000 2.6000 0.9000 162 190 216
-4.0000 2.6000 1.1000 162 190 216
4.0000 2.6000 1.1000 162 190 216
-4.0000 2.6000 1.3000 162 190 216
4.0000 2.6000 1.3000 162 190 216
-4.0000 2.6000 1.5000 162 190 216
4.0000 2.6000 1.5000 162 190 216
-4.0000 2.6000 1.7000 162 190 216
4.0000 2.6000 1.7000 162 190 216
-4.0000 2.6000 1.9000 162 190 216
4.0000 2.6000 1.9000 162 190 216
-4.0000 2.6000 2.1000 162 190 216
4.0000 2.6000 2.1000 162 190 216
-4.0000 2.6000 2.3000 162 190 216
4.0000 2.6000 2.3000 162 190 216
-2.9000 0.5500 -1.5500 74 166 151
-2.9000 0.5500 -1.4000 74 166 151
-2.9000 0.5500 -1.2500 74 166 151
-2.9000 0.5500 -1.1000 74 166 151
-2.9000 0.5500 -0.9500 74 166 151
-2.9000 0.5500 -0.8000 74 166 151
-2.9000 0.5500 -0.6500 74 166 151
-2.7500 0.5500 -1.5500 74 166 151
-2.7500 0.5500 -1.4000 74 166 151
-2.7500 0.5500 -1.2500 74 166 151
-2.7500 0.5500 -1.1000 74 166 151
-2.7500 0.5500 -0.9500 74 166 151
-2.7500 0.5500 -0.8000 74 166 151
-2.7500 0.5500 -0.6500 74 166 151
-2.6000 0.5500 -1.5500 74 166 151
-2.6000 0.5500 -1.4000 74 166 151
-2.6000 0.5500 -1.2500 74 166 151
-2.6000 0.5500 -1.1000 74 166 151
-2.6000 0.5500 -0.9500 74 166 151
-2.6000 0.5500 -0.8000 74 166 151
-2.6000 0.5500 -0.6500 74 166 151
-2.4500 0.5500 -1.5500 74 166 151
-2.4500 0.5500 -1.4000 74 166 151
-2.4500 0.5500 -1.2500 74 166 151
-2.4500 0.5500 -1.1000 74 166 151
-2.4500 0.5500 -0.9500 74 166 151
-2.4500 0.5500 -0.8000 74 166 151
-2.4500 0.5500 -0.6500 74 166 151
-2.3000 0.5500 -1.5500 74 166 151
-2.3000 0.5500 -1.4000 74 166 151
-2.3000 0.5500 -1.2500 74 166 151
-2.3000 0.5500 -1.1000 74 166 151
-2.3000 0.5500 -0.9500 74 166 151
-2.3000 0.5500 -0.8000 74 166 151
-2.3000 0.5500 -0.6500 74 166 151
-2.1500 0.5500 -1.5500 74 166 151
-2.1500 0.5500 -1.4000 74 166 151
-2.1500 0.5500 -1.2500 74 166 151
-2.1500 0.5500 -1.1000 74 166 151
-2.1500 0.5500 -0.9500 74 166 151
-2.1500 0.5500 -0.8000 74 166 151
-2.1500 0.5500 -0.6500 74 166 151
-2.0000 0.5500 -1.5500 74 166 151
-2.0000 0.5500 -1.4000 74 166 151
-2.0000 0.5500 -1.2500 74 166 151
-2.0000 0.5500 -1.1000 74 166 151
-2.0000 0.5500 -0.9500 74 166 151
-2.0000 0.5500 -0.8000 74 166 151
-2.0000 0.5500 -0.6500 74 166 151
-1.8500 0.5500 -1.5500 74 166 151
-1.8500 0.5500 -1.4000 74 166 151
-1.8500 0.5500 -1.2500 74 166 151
-1.8500 0.5500 -1.1000 74 166 151
-1.8500 0.5500 -0.9500 74 166 151
-1.8500 0.5500 -0.8000 74 166 151
-1.8500 0.5500 -0.6500 74 166 151
-1.7000 0.5500 -1.5500 74 166 151
-1.7000 0.5500 -1.4000 74 166 151
-1.7000 0.5500 -1.2500 74 166 151
-1.7000 0.5500 -1.1000 74 166 151
-1.7000 0.5500 -0.9500 74 166 151
-1.7000 0.5500 -0.8000 74 166 151
-1.7000 0.5500 -0.6500 74 166 151
-1.5500 0.5500 -1.5500 74 166 151
-1.5500 0.5500 -1.4000 74 166 151
-1.5500 0.5500 -1.2500 74 166 151
-1.5500 0.5500 -1.1000 74 166 151
-1.5500 0.5500 -0.9500 74 166 151
-1.5500 0.5500 -0.8000 74 166 151
-1.5500 0.5500 -0.6500 74 166 151
-0.7000 0.5500 0.3000 74 166 151
-0.7000 0.5500 0.4500 74 166 151
-0.7000 0.5500 0.6000 74 166 151
-0.7000 0.5500 0.7500 74 166 151
-0.7000 0.5500 0.9000 74 166 151
-0.7000 0.5500 1.0500 74 166 151
-0.7000 0.5500 1.2000 74 166 151
-0.5500 0.5500 0.3000 74 166 151
-0.5500 0.5500 0.4500 74 166 151
-0.5500 0.5500 0.6000 74 166 151
-0.5500 0.5500 0.7500 74 166 151
-0.5500 0.5500 0.9000 74 166 151
-0.5500 0.5500 1.0500 74 166 151
-0.5500 0.5500 1.2000 74 166 151
-0.4000 0.5500 0.3000 74 166 151
-0.4000 0.5500 0.4500 74 166 151
-0.4000 0.5500 0.6000 74 166 151
-0.4000 0.5500 0.7500 74 166 151
-0.4000 0.5500 0.9000 74 166 151
-0.4000 0.5500 1.0500 74 166 151
-0.4000 0.5500 1.2000 74 166 151
-0.2500 0.5500 0.3000 74 166 151
-0.2500 0.5500 0.4500 74 166 151
-0.2500 0.5500 0.6000 74 166 151
-0.2500 0.5500 0.7500 74 166 151
-0.2500 0.5500 0.9000 74 166 151
-0.2500 0.5500 1.0500 74 166 151
-0.2500 0.5500 1.2000 74 166 151
-0.1000 0.5500 0.3000 74 166 151
-0.1000 0.5500 0.4500 74 166 151
-0.1000 0.5500 0.6000 74 166 151
-0.1000 0.5500 0.7500 74 166 151
-0.1000 0.5500 0.9000 74 166 151
-0.1000 0.5500 1.0500 74 166 151
-0.1000 0.5500 1.2000 74 166 151
0.0500 0.5500 0.3000 74 166 151
0.0500 0.5500 0.4500 74 166 151
0.0500 0.5500 0.6000 74 166 151
0.0500 0.5500 0.7500 74 166 151
0.0500 0.5500 0.9000 74 166 151
0.0500 0.5500 1.0500 74 166 151
0.0500 0.5500 1.2000 74 166 151
0.2000 0.5500 0.3000 74 166 151
0.2000 0.5500 0.4500 74 166 151
0.2000 0.5500 0.6000 74 166 151
0.2000 0.5500 0.7500 74 166 151
0.2000 0.5500 0.9000 74 166 151
0.2000 0.5500 1.0500 74 166 151
0.2000 0.5500 1.2000 74 166 151
0.3500 0.5500 0.3000 74 166 151
0.3500 0.5500 0.4500 74 166 151
0.3500 0.5500 0.6000 74 166 151
0.3500 0.5500 0.7500 74 166 151
0.3500 0.5500 0.9000 74 166 151
0.3500 0.5500 1.0500 74 166 151
0.3500 0.5500 1.2000 74 166 151
0.5000 0.5500 0.3000 74 166 151
0.5000 0.5500 0.4500 74 166 151
0.5000 0.5500 0.6000 74 166 151
0.5000 0.5500 0.7500 74 166 151
0.5000 0.5500 0.9000 74 166 151
0.5000 0.5500 1.0500 74 166 151
0.5000 0.5500 1.2000 74 166 151
0.6500 0.5500 0.3000 74 166 151
0.6500 0.5500 0.4500 74 166 151
0.6500 0.5500 0.6000 74 166 151
0.6500 0.5500 0.7500 74 166 151
0.6500 0.5500 0.9000 74 166 151
0.6500 0.5500 1.0500 74 166 151
0.6500 0.5500 1.2000 74 166 151
0.8000 0.5500 0.3000 74 166 151
0.8000 0.5500 0.4500 74 166 151
0.8000 0.5500 0.6000 74 166 151
0.8000 0.5500 0.7500 74 166 151
0.8000 0.5500 0.9000 74 166 151
0.8000 0.5500 1.0500 74 166 151
0.8000 0.5500 1.2000 74 166 151
0.9500 0.5500 0.3000 74 166 151
0.9500 0.5500 0.4500 74 166 151
0.9500 0.5500 0.6000 74 166 151
0.9500 0.5500 0.7500 74 166 151
0.9500 0.5500 0.9000 74 166 151
0.9500 0.5500 1.0500 74 166 151
0.9500 0.5500 1.2000 74 166 151
1.1000 0.5500 0.3000 74 166 151
1.1000 0.5500 0.4500 74 166 151
1.1000 0.5500 0.6000 74 166 151
1.1000 0.5500 0.7500 74 166 151
1.1000 0.5500 0.9000 74 166 151
1.1000 0.5500 1.0500 74 166 151
1.1000 0.5500 1.2000 74 166 151
1.9500 0.5500 -1.4000 74 166 151
1.9500 0.5500 -1.2500 74 166 151
1.9500 0.5500 -1.1000 74 166 151
1.9500 0.5500 -0.9500 74 166 151
1.9500 0.5500 -0.8000 74 166 151
1.9500 0.5500 -0.6500 74 166 151
1.9500 0.5500 -0.5000 74 166 151
1.9500 0.5500 -0.3500 74 166 151
1.9500 0.5500 -0.2000 74 166 151
1.9500 0.5500 -0.0500 74 166 151
2.1000 0.5500 -1.4000 74 166 151
2.1000 0.5500 -1.2500 74 166 151
2.1000 0.5500 -1.1000 74 166 151
2.1000 0.5500 -0.9500 74 166 151
2.1000 0.5500 -0.8000 74 166 151
2.1000 0.5500 -0.6500 74 166 151
2.1000 0.5500 -0.5000 74 166 151
2.1000 0.5500 -0.3500 74 166 151
2.1000 0.5500 -0.2000 74 166 151
2.1000 0.5500 -0.0500 74 166 151
2.2500 0.5500 -1.4000 74 166 151
2.2500 0.5500 -1.2500 74 166 151
2.2500 0.5500 -1.1000 74 166 151
2.2500 0.5500 -0.9500 74 166 151
2.2500 0.5500 -0.8000 74 166 151
2.2500 0.5500 -0.6500 74 166 151
2.2500 0.5500 -0.5000 74 166 151
2.2500 0.5500 -0.3500 74 166 151
2.2500 0.5500 -0.2000 74 166 151
2.2500 0.5500 -0.0500 74 166 151
2.4000 0.5500 -1.4000 74 166 151
2.4000 0.5500 -1.2500 74 166 151
2.4000 0.5500 -1.1000 74 166 151
2.4000 0.5500 -0.9500 74 166 151
2.4000 0.5500 -0.8000 74 166 151
2.4000 0.5500 -0.6500 74 166 151
2.4000 0.5500 -0.5000 74 166 151
2.4000 0.5500 -0.3500 74 166 151
2.4000 0.5500 -0.2000 74 166 151
2.4000 0.5500 -0.0500 74 166 151
2.5500 0.5500 -1.4000 74 166 151
2.5500 0.5500 -1.2500 74 166 151
2.5500 0.5500 -1.1000 74 166 151
2.5500 0.5500 -0.9500 74 166 151
2.5500 0.5500 -0.8000 74 166 151
2.5500 0.5500 -0.6500 74 166 151
2.5500 0.5500 -0.5000 74 166 151
2.5500 0.5500 -0.3500 74 166 151
2.5500 0.5500 -0.2000 74 166 151
2.5500 0.5500 -0.0500 74 166 151
2.7000 0.5500 -1.4000 74 166 151
2.7000 0.5500 -1.2500 74 166 151
2.7000 0.5500 -1.1000 74 166 151
2.7000 0.5500 -0.9500 74 166 151
2.7000 0.5500 -0.8000 74 166 151
2.7000 0.5500 -0.6500 74 166 151
2.7000 0.5500 -0.5000 74 166 151
2.7000 0.5500 -0.3500 74 166 151
2.7000 0.5500 -0.2000 74 166 151
2.7000 0.5500 -0.0500 74 166 151
2.8500 0.5500 -1.4000 74 166 151
2.8500 0.5500 -1.2500 74 166 151
2.8500 0.5500 -1.1000 74 166 151
2.8500 0.5500 -0.9500 74 166 151
2.8500 0.5500 -0.8000 74 166 151
2.8500 0.5500 -0.6500 74 166 151
2.8500 0.5500 -0.5000 74 166 151
2.8500 0.5500 -0.3500 74 166 151
2.8500 0.5500 -0.2000 74 166 151
2.8500 0.5500 -0.0500 74 166 151
3.0000 0.5500 -1.4000 74 166 151
3.0000 0.5500 -1.2500 74 166 151
3.0000 0.5500 -1.1000 74 166 151
3.0000 0.5500 -0.9500 74 166 151
3.0000 0.5500 -0.8000 74 166 151
3.0000 0.5500 -0.6500 74 166 151
3.0000 0.5500 -0.5000 74 166 151
3.0000 0.5500 -0.3500 74 166 151
3.0000 0.5500 -0.2000 74 166 151
3.0000 0.5500 -0.0500 74 166 151
