ply
format ascii 1.0
comment Synthetic diagnostic marker layer.
element vertex 51
property float x
property float y
property float z
property uchar red
property uchar green
property uchar blue
end_header
-0.6500 0.0500 2.4800 255 154 72
-0.6500 0.4500 2.4800 255 154 72
-0.6500 0.9000 2.4800 255 154 72
-0.5700 0.0500 2.4800 255 154 72
-0.5700 0.4500 2.4800 255 154 72
-0.5700 0.9000 2.4800 255 154 72
-0.4900 0.0500 2.4800 255 154 72
-0.4900 0.4500 2.4800 255 154 72
-0.4900 0.9000 2.4800 255 154 72
-0.4100 0.0500 2.4800 255 154 72
-0.4100 0.4500 2.4800 255 154 72
-0.4100 0.9000 2.4800 255 154 72
-0.3300 0.0500 2.4800 255 154 72
-0.3300 0.4500 2.4800 255 154 72
-0.3300 0.9000 2.4800 255 154 72
-0.2500 0.0500 2.4800 255 154 72
-0.2500 0.4500 2.4800 255 154 72
-0.2500 0.9000 2.4800 255 154 72
-0.1700 0.0500 2.4800 255 154 72
-0.1700 0.4500 2.4800 255 154 72
-0.1700 0.9000 2.4800 255 154 72
-0.0900 0.0500 2.4800 255 154 72
-0.0900 0.4500 2.4800 255 154 72
-0.0900 0.9000 2.4800 255 154 72
-0.0100 0.0500 2.4800 255 154 72
-0.0100 0.4500 2.4800 255 154 72
-0.0100 0.9000 2.4800 255 154 72
0.0700 0.0500 2.4800 255 154 72
0.0700 0.4500 2.4800 255 154 72
0.0700 0.9000 2.4800 255 154 72
0.1500 0.0500 2.4800 255 154 72
0.1500 0.4500 2.4800 255 154 72
0.1500 0.9000 2.4800 255 154 72
0.2300 0.0500 2.4800 255 154 72
0.2300 0.4500 2.4800 255 154 72
0.2300 0.9000 2.4800 255 154 72
0.3100 0.0500 2.4800 255 154 72
0.3100 0.4500 2.4800 255 154 72
0.3100 0.9000 2.4800 255 154 72
0.3900 0.0500 2.4800 255 154 72
0.3900 0.4500 2.4800 255 154 72
0.3900 0.9000 2.4800 255 154 72
0.4700 0.0500 2.4800 255 154 72
0.4700 0.4500 2.4800 255 154 72
0.4700 0.9000 2.4800 255 154 72
0.5500 0.0500 2.4800 255 154 72
0.5500 0.4500 2.4800 255 154 72
0.5500 0.9000 2.4800 255 154 72
0.6300 0.0500 2.4800 255 154 72
0.6300 0.4500 2.4800 255 154 72
0.6300 0.9000 2.4800 255 154 72
